<?xml version="1.0" encoding="UTF-8" standalone="no"?>
<!DOCTYPE svg PUBLIC "-//W3C//DTD SVG 1.1//EN"
 "http://www.w3.org/Graphics/SVG/1.1/DTD/svg11.dtd">
<!-- Generated by graphviz version 2.40.1 (20161225.0304)
 -->
<!-- Title: auth.space_invitations Pages: 1 -->
<svg width="900pt" height="772pt"
 viewBox="0.00 0.00 900.00 772.00" xmlns="http://www.w3.org/2000/svg" xmlns:xlink="http://www.w3.org/1999/xlink">
<g id="graph0" class="graph" transform="scale(1 1) rotate(0) translate(4 768)">
<title>auth.space_invitations</title>
<polygon fill="#ffffff" stroke="transparent" points="-4,4 -4,-768 896,-768 896,4 -4,4"/>
<!-- auth.space_invitations -->
<g id="node1" class="node">
<title>auth.space_invitations</title>
<polygon fill="#efefef" stroke="transparent" points="299,-682.5 299,-717.5 618,-717.5 618,-682.5 299,-682.5"/>
<polygon fill="none" stroke="#000000" points="299,-682.5 299,-717.5 618,-717.5 618,-682.5 299,-682.5"/>
<text text-anchor="start" x="305.6862" y="-695.3" font-family="Arial Bold" font-size="18.00" fill="#000000">auth.space_invitations</text>
<text text-anchor="start" x="483.7458" y="-695.3" font-family="Arial" font-size="14.00" fill="#000000">    </text>
<text text-anchor="start" x="517.9506" y="-695.3" font-family="Arial" font-size="14.00" fill="#666666">[BASE TABLE]</text>
<polygon fill="none" stroke="#000000" points="299,-652.5 299,-682.5 618,-682.5 618,-652.5 299,-652.5"/>
<text text-anchor="start" x="306" y="-663.9" font-family="Arial" font-size="14.00" fill="#000000">invitation_id </text>
<text text-anchor="start" x="383.7938" y="-663.9" font-family="Arial" font-size="14.00" fill="#666666">[integer]</text>
<polygon fill="none" stroke="#000000" points="299,-622.5 299,-652.5 618,-652.5 618,-622.5 299,-622.5"/>
<text text-anchor="start" x="306" y="-633.9" font-family="Arial" font-size="14.00" fill="#000000">space_id </text>
<text text-anchor="start" x="365.9102" y="-633.9" font-family="Arial" font-size="14.00" fill="#666666">[integer]</text>
<polygon fill="none" stroke="#000000" points="299,-592.5 299,-622.5 618,-622.5 618,-592.5 299,-592.5"/>
<text text-anchor="start" x="306" y="-603.9" font-family="Arial" font-size="14.00" fill="#000000">role </text>
<text text-anchor="start" x="333.223" y="-603.9" font-family="Arial" font-size="14.00" fill="#666666">[auth.roles]</text>
<polygon fill="none" stroke="#000000" stroke-width="3" points="297,-591.5 297,-719.5 619,-719.5 619,-591.5 297,-591.5"/>
</g>
<!-- auth.invitations -->
<g id="node2" class="node">
<title>auth.invitations</title>
<polygon fill="#efefef" stroke="transparent" points="131,-342.5 131,-377.5 404,-377.5 404,-342.5 131,-342.5"/>
<polygon fill="none" stroke="#000000" points="131,-342.5 131,-377.5 404,-377.5 404,-342.5 131,-342.5"/>
<text text-anchor="start" x="143.6986" y="-355.3" font-family="Arial Bold" font-size="18.00" fill="#000000">auth.invitations</text>
<text text-anchor="start" x="263.7334" y="-355.3" font-family="Arial" font-size="14.00" fill="#000000">    </text>
<text text-anchor="start" x="297.9382" y="-355.3" font-family="Arial" font-size="14.00" fill="#666666">[BASE TABLE]</text>
<polygon fill="none" stroke="#000000" points="131,-312.5 131,-342.5 404,-342.5 404,-312.5 131,-312.5"/>
<text text-anchor="start" x="138" y="-323.9" font-family="Arial" font-size="14.00" fill="#000000">id    </text>
<text text-anchor="start" x="183.094" y="-323.9" font-family="Arial" font-size="14.00" fill="#666666">[integer]</text>
<polygon fill="none" stroke="#000000" points="131,-282.5 131,-312.5 404,-312.5 404,-282.5 131,-282.5"/>
<text text-anchor="start" x="138" y="-293.9" font-family="Arial" font-size="14.00" fill="#000000">invited_by    </text>
<text text-anchor="start" x="235.2216" y="-293.9" font-family="Arial" font-size="14.00" fill="#666666">[integer]</text>
<polygon fill="none" stroke="#000000" points="131,-252.5 131,-282.5 404,-282.5 404,-252.5 131,-252.5"/>
<text text-anchor="start" x="137.6017" y="-263.9" font-family="Arial" font-size="14.00" fill="#000000">invited_at    </text>
<text text-anchor="start" x="231.7139" y="-263.9" font-family="Arial" font-size="14.00" fill="#666666">[timestamp with time zone]</text>
<polygon fill="none" stroke="#000000" points="131,-222.5 131,-252.5 404,-252.5 404,-222.5 131,-222.5"/>
<text text-anchor="start" x="138" y="-233.9" font-family="Arial" font-size="14.00" fill="#000000">email    </text>
<text text-anchor="start" x="205.6438" y="-233.9" font-family="Arial" font-size="14.00" fill="#666666">[varchar(360)]</text>
<polygon fill="none" stroke="#000000" points="131,-192.5 131,-222.5 404,-222.5 404,-192.5 131,-192.5"/>
<text text-anchor="start" x="138" y="-203.9" font-family="Arial" font-size="14.00" fill="#000000">token    </text>
<text text-anchor="start" x="206.4432" y="-203.9" font-family="Arial" font-size="14.00" fill="#666666">[text]</text>
<polygon fill="none" stroke="#000000" points="131,-162.5 131,-192.5 404,-192.5 404,-162.5 131,-162.5"/>
<text text-anchor="start" x="138" y="-173.9" font-family="Arial" font-size="14.00" fill="#000000">expires    </text>
<text text-anchor="start" x="217.3198" y="-173.9" font-family="Arial" font-size="14.00" fill="#666666">[timestamp with time zone]</text>
<polygon fill="none" stroke="#000000" points="131,-132.5 131,-162.5 404,-162.5 404,-132.5 131,-132.5"/>
<text text-anchor="start" x="138" y="-143.9" font-family="Arial" font-size="14.00" fill="#000000">user_id    </text>
<text text-anchor="start" x="218.1024" y="-143.9" font-family="Arial" font-size="14.00" fill="#666666">[integer]</text>
</g>
<!-- auth.space_invitations&#45;&gt;auth.invitations -->
<g id="edge1" class="edge">
<title>auth.space_invitations:invitation_id&#45;&gt;auth.invitations:id</title>
<path fill="none" stroke="#000000" d="M288.9845,-666.4909C250.3274,-657.7339 282.0502,-593.8161 299,-547 323.8155,-478.4583 379.1845,-489.5417 404,-421 418.1466,-381.9265 445.5556,-327.5 404,-327.5"/>
<polygon fill="#000000" stroke="#000000" points="289.0504,-666.4975 298.5489,-671.9773 294.0252,-666.9987 299,-667.5 299,-667.5 299,-667.5 294.0252,-666.9987 299.4511,-663.0227 289.0504,-666.4975 289.0504,-666.4975"/>
<text text-anchor="start" x="7.213" y="-677.5" font-family="Arial" font-size="10.00" fill="#000000">FOREIGN KEY (invitation_id) REFERENCES auth.invitations(id)</text>
</g>
<!-- auth.spaces -->
<g id="node3" class="node">
<title>auth.spaces</title>
<polygon fill="#efefef" stroke="transparent" points="508,-432.5 508,-467.5 791,-467.5 791,-432.5 508,-432.5"/>
<polygon fill="none" stroke="#000000" points="508,-432.5 508,-467.5 791,-467.5 791,-432.5 508,-432.5"/>
<text text-anchor="start" x="537.1952" y="-445.3" font-family="Arial Bold" font-size="18.00" fill="#000000">auth.spaces</text>
<text text-anchor="start" x="634.2368" y="-445.3" font-family="Arial" font-size="14.00" fill="#000000">    </text>
<text text-anchor="start" x="668.4416" y="-445.3" font-family="Arial" font-size="14.00" fill="#666666">[BASE TABLE]</text>
<polygon fill="none" stroke="#000000" points="508,-402.5 508,-432.5 791,-432.5 791,-402.5 508,-402.5"/>
<text text-anchor="start" x="515" y="-413.9" font-family="Arial" font-size="14.00" fill="#000000">id    </text>
<text text-anchor="start" x="560.094" y="-413.9" font-family="Arial" font-size="14.00" fill="#666666">[integer]</text>
<polygon fill="none" stroke="#000000" points="508,-372.5 508,-402.5 791,-402.5 791,-372.5 508,-372.5"/>
<text text-anchor="start" x="515" y="-383.9" font-family="Arial" font-size="14.00" fill="#000000">parent_space_id    </text>
<text text-anchor="start" x="652.6886" y="-383.9" font-family="Arial" font-size="14.00" fill="#666666">[integer]</text>
<polygon fill="none" stroke="#000000" points="508,-342.5 508,-372.5 791,-372.5 791,-342.5 508,-342.5"/>
<text text-anchor="start" x="515" y="-353.9" font-family="Arial" font-size="14.00" fill="#000000">slug    </text>
<text text-anchor="start" x="574.8766" y="-353.9" font-family="Arial" font-size="14.00" fill="#666666">[varchar(100)]</text>
<polygon fill="none" stroke="#000000" points="508,-312.5 508,-342.5 791,-342.5 791,-312.5 508,-312.5"/>
<text text-anchor="start" x="515" y="-323.9" font-family="Arial" font-size="14.00" fill="#000000">title    </text>
<text text-anchor="start" x="570.9818" y="-323.9" font-family="Arial" font-size="14.00" fill="#666666">[varchar(100)]</text>
<polygon fill="none" stroke="#000000" points="508,-282.5 508,-312.5 791,-312.5 791,-282.5 508,-282.5"/>
<text text-anchor="start" x="515" y="-293.9" font-family="Arial" font-size="14.00" fill="#000000">description    </text>
<text text-anchor="start" x="616.8822" y="-293.9" font-family="Arial" font-size="14.00" fill="#666666">[text]</text>
<polygon fill="none" stroke="#000000" points="508,-252.5 508,-282.5 791,-282.5 791,-252.5 508,-252.5"/>
<text text-anchor="start" x="515" y="-263.9" font-family="Arial" font-size="14.00" fill="#000000">is_publicly_browsable    </text>
<text text-anchor="start" x="685.331" y="-263.9" font-family="Arial" font-size="14.00" fill="#666666">[boolean]</text>
<polygon fill="none" stroke="#000000" points="508,-222.5 508,-252.5 791,-252.5 791,-222.5 508,-222.5"/>
<text text-anchor="start" x="515" y="-233.9" font-family="Arial" font-size="14.00" fill="#000000">invitation_required    </text>
<text text-anchor="start" x="663.5596" y="-233.9" font-family="Arial" font-size="14.00" fill="#666666">[boolean]</text>
<polygon fill="none" stroke="#000000" points="508,-192.5 508,-222.5 791,-222.5 791,-192.5 508,-192.5"/>
<text text-anchor="start" x="515" y="-203.9" font-family="Arial" font-size="14.00" fill="#000000">created_by    </text>
<text text-anchor="start" x="618.4516" y="-203.9" font-family="Arial" font-size="14.00" fill="#666666">[integer]</text>
<polygon fill="none" stroke="#000000" points="508,-162.5 508,-192.5 791,-192.5 791,-162.5 508,-162.5"/>
<text text-anchor="start" x="515" y="-173.9" font-family="Arial" font-size="14.00" fill="#000000">created_at    </text>
<text text-anchor="start" x="615.3422" y="-173.9" font-family="Arial" font-size="14.00" fill="#666666">[timestamp with time zone]</text>
<polygon fill="none" stroke="#000000" points="508,-132.5 508,-162.5 791,-162.5 791,-132.5 508,-132.5"/>
<text text-anchor="start" x="515" y="-143.9" font-family="Arial" font-size="14.00" fill="#000000">updated_by    </text>
<text text-anchor="start" x="622.3562" y="-143.9" font-family="Arial" font-size="14.00" fill="#666666">[integer]</text>
<polygon fill="none" stroke="#000000" points="508,-102.5 508,-132.5 791,-132.5 791,-102.5 508,-102.5"/>
<text text-anchor="start" x="514.5344" y="-113.9" font-family="Arial" font-size="14.00" fill="#000000">updated_at    </text>
<text text-anchor="start" x="618.7812" y="-113.9" font-family="Arial" font-size="14.00" fill="#666666">[timestamp with time zone]</text>
<polygon fill="none" stroke="#000000" points="508,-72.5 508,-102.5 791,-102.5 791,-72.5 508,-72.5"/>
<text text-anchor="start" x="515" y="-83.9" font-family="Arial" font-size="14.00" fill="#000000">deleted_by    </text>
<text text-anchor="start" x="617.6802" y="-83.9" font-family="Arial" font-size="14.00" fill="#666666">[integer]</text>
<polygon fill="none" stroke="#000000" points="508,-42.5 508,-72.5 791,-72.5 791,-42.5 508,-42.5"/>
<text text-anchor="start" x="515" y="-53.9" font-family="Arial" font-size="14.00" fill="#000000">deleted_at    </text>
<text text-anchor="start" x="614.5708" y="-53.9" font-family="Arial" font-size="14.00" fill="#666666">[timestamp with time zone]</text>
</g>
<!-- auth.space_invitations&#45;&gt;auth.spaces -->
<g id="edge2" class="edge">
<title>auth.space_invitations:space_id&#45;&gt;auth.spaces:id</title>
<path fill="none" stroke="#000000" d="M628.2042,-635.9201C654.9105,-626.4266 639.302,-576.3854 618,-547 587.8083,-505.3516 538.1917,-552.6484 508,-511 483.61,-477.3549 466.4444,-417.5 508,-417.5"/>
<polygon fill="#000000" stroke="#000000" points="627.8822,-635.9698 617.3114,-633.053 622.9411,-636.7349 618,-637.5 618,-637.5 618,-637.5 622.9411,-636.7349 618.6886,-641.947 627.8822,-635.9698 627.8822,-635.9698"/>
<text text-anchor="start" x="624.987" y="-647.5" font-family="Arial" font-size="10.00" fill="#000000">FOREIGN KEY (space_id) REFERENCES auth.spaces(id)</text>
</g>
</g>
</svg>
