<?xml version="1.0" encoding="UTF-8" standalone="no"?>
<!DOCTYPE svg PUBLIC "-//W3C//DTD SVG 1.1//EN"
 "http://www.w3.org/Graphics/SVG/1.1/DTD/svg11.dtd">
<!-- Generated by graphviz version 2.40.1 (20161225.0304)
 -->
<!-- Title: auth.spaces Pages: 1 -->
<svg width="1633pt" height="1649pt"
 viewBox="0.00 0.00 1632.50 1649.00" xmlns="http://www.w3.org/2000/svg" xmlns:xlink="http://www.w3.org/1999/xlink">
<g id="graph0" class="graph" transform="scale(1 1) rotate(0) translate(4 1645)">
<title>auth.spaces</title>
<polygon fill="#ffffff" stroke="transparent" points="-4,4 -4,-1645 1628.5,-1645 1628.5,4 -4,4"/>
<!-- auth.spaces -->
<g id="node1" class="node">
<title>auth.spaces</title>
<polygon fill="#efefef" stroke="transparent" points="665.5,-1072.5 665.5,-1107.5 918.5,-1107.5 918.5,-1072.5 665.5,-1072.5"/>
<polygon fill="none" stroke="#000000" points="665.5,-1072.5 665.5,-1107.5 918.5,-1107.5 918.5,-1072.5 665.5,-1072.5"/>
<text text-anchor="start" x="679.6952" y="-1085.3" font-family="Arial Bold" font-size="18.00" fill="#000000">auth.spaces</text>
<text text-anchor="start" x="776.7368" y="-1085.3" font-family="Arial" font-size="14.00" fill="#000000">    </text>
<text text-anchor="start" x="810.9416" y="-1085.3" font-family="Arial" font-size="14.00" fill="#666666">[BASE TABLE]</text>
<polygon fill="none" stroke="#000000" points="665.5,-1042.5 665.5,-1072.5 918.5,-1072.5 918.5,-1042.5 665.5,-1042.5"/>
<text text-anchor="start" x="672.5" y="-1053.9" font-family="Arial" font-size="14.00" fill="#000000">id </text>
<text text-anchor="start" x="687.2798" y="-1053.9" font-family="Arial" font-size="14.00" fill="#666666">[integer]</text>
<polygon fill="none" stroke="#000000" points="665.5,-1012.5 665.5,-1042.5 918.5,-1042.5 918.5,-1012.5 665.5,-1012.5"/>
<text text-anchor="start" x="672.5" y="-1023.9" font-family="Arial" font-size="14.00" fill="#000000">parent_space_id </text>
<text text-anchor="start" x="779.8744" y="-1023.9" font-family="Arial" font-size="14.00" fill="#666666">[integer]</text>
<polygon fill="none" stroke="#000000" points="665.5,-982.5 665.5,-1012.5 918.5,-1012.5 918.5,-982.5 665.5,-982.5"/>
<text text-anchor="start" x="672.5" y="-993.9" font-family="Arial" font-size="14.00" fill="#000000">slug </text>
<text text-anchor="start" x="702.0624" y="-993.9" font-family="Arial" font-size="14.00" fill="#666666">[varchar(100)]</text>
<polygon fill="none" stroke="#000000" points="665.5,-952.5 665.5,-982.5 918.5,-982.5 918.5,-952.5 665.5,-952.5"/>
<text text-anchor="start" x="672.5" y="-963.9" font-family="Arial" font-size="14.00" fill="#000000">title </text>
<text text-anchor="start" x="698.1676" y="-963.9" font-family="Arial" font-size="14.00" fill="#666666">[varchar(100)]</text>
<polygon fill="none" stroke="#000000" points="665.5,-922.5 665.5,-952.5 918.5,-952.5 918.5,-922.5 665.5,-922.5"/>
<text text-anchor="start" x="672.5" y="-933.9" font-family="Arial" font-size="14.00" fill="#000000">description </text>
<text text-anchor="start" x="744.068" y="-933.9" font-family="Arial" font-size="14.00" fill="#666666">[text]</text>
<polygon fill="none" stroke="#000000" points="665.5,-892.5 665.5,-922.5 918.5,-922.5 918.5,-892.5 665.5,-892.5"/>
<text text-anchor="start" x="672.5" y="-903.9" font-family="Arial" font-size="14.00" fill="#000000">is_publicly_browsable </text>
<text text-anchor="start" x="812.5168" y="-903.9" font-family="Arial" font-size="14.00" fill="#666666">[boolean]</text>
<polygon fill="none" stroke="#000000" points="665.5,-862.5 665.5,-892.5 918.5,-892.5 918.5,-862.5 665.5,-862.5"/>
<text text-anchor="start" x="672.5" y="-873.9" font-family="Arial" font-size="14.00" fill="#000000">invitation_required </text>
<text text-anchor="start" x="790.7454" y="-873.9" font-family="Arial" font-size="14.00" fill="#666666">[boolean]</text>
<polygon fill="none" stroke="#000000" points="665.5,-832.5 665.5,-862.5 918.5,-862.5 918.5,-832.5 665.5,-832.5"/>
<text text-anchor="start" x="672.5" y="-843.9" font-family="Arial" font-size="14.00" fill="#000000">created_by </text>
<text text-anchor="start" x="745.6374" y="-843.9" font-family="Arial" font-size="14.00" fill="#666666">[integer]</text>
<polygon fill="none" stroke="#000000" points="665.5,-802.5 665.5,-832.5 918.5,-832.5 918.5,-802.5 665.5,-802.5"/>
<text text-anchor="start" x="672.5" y="-813.9" font-family="Arial" font-size="14.00" fill="#000000">created_at </text>
<text text-anchor="start" x="742.528" y="-813.9" font-family="Arial" font-size="14.00" fill="#666666">[timestamp with time zone]</text>
<polygon fill="none" stroke="#000000" points="665.5,-772.5 665.5,-802.5 918.5,-802.5 918.5,-772.5 665.5,-772.5"/>
<text text-anchor="start" x="672.5" y="-783.9" font-family="Arial" font-size="14.00" fill="#000000">updated_by </text>
<text text-anchor="start" x="749.542" y="-783.9" font-family="Arial" font-size="14.00" fill="#666666">[integer]</text>
<polygon fill="none" stroke="#000000" points="665.5,-742.5 665.5,-772.5 918.5,-772.5 918.5,-742.5 665.5,-742.5"/>
<text text-anchor="start" x="672.1915" y="-753.9" font-family="Arial" font-size="14.00" fill="#000000">updated_at </text>
<text text-anchor="start" x="746.1241" y="-753.9" font-family="Arial" font-size="14.00" fill="#666666">[timestamp with time zone]</text>
<polygon fill="none" stroke="#000000" points="665.5,-712.5 665.5,-742.5 918.5,-742.5 918.5,-712.5 665.5,-712.5"/>
<text text-anchor="start" x="672.5" y="-723.9" font-family="Arial" font-size="14.00" fill="#000000">deleted_by </text>
<text text-anchor="start" x="744.866" y="-723.9" font-family="Arial" font-size="14.00" fill="#666666">[integer]</text>
<polygon fill="none" stroke="#000000" points="665.5,-682.5 665.5,-712.5 918.5,-712.5 918.5,-682.5 665.5,-682.5"/>
<text text-anchor="start" x="672.5" y="-693.9" font-family="Arial" font-size="14.00" fill="#000000">deleted_at </text>
<text text-anchor="start" x="741.7566" y="-693.9" font-family="Arial" font-size="14.00" fill="#666666">[timestamp with time zone]</text>
<polygon fill="none" stroke="#000000" stroke-width="3" points="663.5,-681.5 663.5,-1109.5 919.5,-1109.5 919.5,-681.5 663.5,-681.5"/>
</g>
<!-- auth.spaces&#45;&gt;auth.spaces -->
<g id="edge1" class="edge">
<title>auth.spaces:parent_space_id&#45;&gt;auth.spaces:id</title>
<path fill="none" stroke="#000000" d="M793.7284,-1052.5243C801.4795,-1220.2624 801.07,-1414 792.5,-1414 783.7637,-1414 783.5077,-1240.9374 791.7322,-1072.7134"/>
<polygon fill="#000000" stroke="#000000" points="793.7283,-1052.5217 797.7504,-1042.32 793.4919,-1047.5272 793.2554,-1042.5328 793.2554,-1042.5328 793.2554,-1042.5328 793.4919,-1047.5272 788.7605,-1042.7456 793.7283,-1052.5217 793.7283,-1052.5217"/>
<text text-anchor="start" x="800.0099" y="-1052.5328" font-family="Arial" font-size="10.00" fill="#000000">FOREIGN KEY (parent_space_id) REFERENCES auth.spaces(id) ON DELETE CASCADE</text>
</g>
<!-- auth.users -->
<g id="node6" class="node">
<title>auth.users</title>
<polygon fill="#efefef" stroke="transparent" points="649.5,-522.5 649.5,-557.5 935.5,-557.5 935.5,-522.5 649.5,-522.5"/>
<polygon fill="none" stroke="#000000" points="649.5,-522.5 649.5,-557.5 935.5,-557.5 935.5,-522.5 649.5,-522.5"/>
<text text-anchor="start" x="686.7022" y="-535.3" font-family="Arial Bold" font-size="18.00" fill="#000000">auth.users</text>
<text text-anchor="start" x="770.7298" y="-535.3" font-family="Arial" font-size="14.00" fill="#000000">    </text>
<text text-anchor="start" x="804.9346" y="-535.3" font-family="Arial" font-size="14.00" fill="#666666">[BASE TABLE]</text>
<polygon fill="none" stroke="#000000" points="649.5,-492.5 649.5,-522.5 935.5,-522.5 935.5,-492.5 649.5,-492.5"/>
<text text-anchor="start" x="656.5" y="-503.9" font-family="Arial" font-size="14.00" fill="#000000">id    </text>
<text text-anchor="start" x="701.594" y="-503.9" font-family="Arial" font-size="14.00" fill="#666666">[integer]</text>
<polygon fill="none" stroke="#000000" points="649.5,-462.5 649.5,-492.5 935.5,-492.5 935.5,-462.5 649.5,-462.5"/>
<text text-anchor="start" x="656.5" y="-473.9" font-family="Arial" font-size="14.00" fill="#000000">username    </text>
<text text-anchor="start" x="752.939" y="-473.9" font-family="Arial" font-size="14.00" fill="#666666">[varchar(100)]</text>
<polygon fill="none" stroke="#000000" points="649.5,-432.5 649.5,-462.5 935.5,-462.5 935.5,-432.5 649.5,-432.5"/>
<text text-anchor="start" x="656.5" y="-443.9" font-family="Arial" font-size="14.00" fill="#000000">first_name    </text>
<text text-anchor="start" x="756.0442" y="-443.9" font-family="Arial" font-size="14.00" fill="#666666">[varchar(150)]</text>
<polygon fill="none" stroke="#000000" points="649.5,-402.5 649.5,-432.5 935.5,-432.5 935.5,-402.5 649.5,-402.5"/>
<text text-anchor="start" x="656.5" y="-413.9" font-family="Arial" font-size="14.00" fill="#000000">last_name    </text>
<text text-anchor="start" x="755.2756" y="-413.9" font-family="Arial" font-size="14.00" fill="#666666">[varchar(150)]</text>
<polygon fill="none" stroke="#000000" points="649.5,-372.5 649.5,-402.5 935.5,-402.5 935.5,-372.5 649.5,-372.5"/>
<text text-anchor="start" x="656.5" y="-383.9" font-family="Arial" font-size="14.00" fill="#000000">email    </text>
<text text-anchor="start" x="724.1438" y="-383.9" font-family="Arial" font-size="14.00" fill="#666666">[varchar(360)]</text>
<polygon fill="none" stroke="#000000" points="649.5,-342.5 649.5,-372.5 935.5,-372.5 935.5,-342.5 649.5,-342.5"/>
<text text-anchor="start" x="656.5" y="-353.9" font-family="Arial" font-size="14.00" fill="#000000">password    </text>
<text text-anchor="start" x="750.6024" y="-353.9" font-family="Arial" font-size="14.00" fill="#666666">[varchar(255)]</text>
<polygon fill="none" stroke="#000000" points="649.5,-312.5 649.5,-342.5 935.5,-342.5 935.5,-312.5 649.5,-312.5"/>
<text text-anchor="start" x="656.5" y="-323.9" font-family="Arial" font-size="14.00" fill="#000000">lang    </text>
<text text-anchor="start" x="717.1592" y="-323.9" font-family="Arial" font-size="14.00" fill="#666666">[auth.langs]</text>
<polygon fill="none" stroke="#000000" points="649.5,-282.5 649.5,-312.5 935.5,-312.5 935.5,-282.5 649.5,-282.5"/>
<text text-anchor="start" x="656.5" y="-293.9" font-family="Arial" font-size="14.00" fill="#000000">is_active    </text>
<text text-anchor="start" x="745.1564" y="-293.9" font-family="Arial" font-size="14.00" fill="#666666">[boolean]</text>
<polygon fill="none" stroke="#000000" points="649.5,-252.5 649.5,-282.5 935.5,-282.5 935.5,-252.5 649.5,-252.5"/>
<text text-anchor="start" x="656.5" y="-263.9" font-family="Arial" font-size="14.00" fill="#000000">is_superuser    </text>
<text text-anchor="start" x="770.8282" y="-263.9" font-family="Arial" font-size="14.00" fill="#666666">[boolean]</text>
<polygon fill="none" stroke="#000000" points="649.5,-222.5 649.5,-252.5 935.5,-252.5 935.5,-222.5 649.5,-222.5"/>
<text text-anchor="start" x="656.5" y="-233.9" font-family="Arial" font-size="14.00" fill="#000000">is_serviceuser    </text>
<text text-anchor="start" x="780.1522" y="-233.9" font-family="Arial" font-size="14.00" fill="#666666">[boolean]</text>
<polygon fill="none" stroke="#000000" points="649.5,-192.5 649.5,-222.5 935.5,-222.5 935.5,-192.5 649.5,-192.5"/>
<text text-anchor="start" x="656.5" y="-203.9" font-family="Arial" font-size="14.00" fill="#000000">last_login    </text>
<text text-anchor="start" x="749.8282" y="-203.9" font-family="Arial" font-size="14.00" fill="#666666">[timestamp with time zone]</text>
<polygon fill="none" stroke="#000000" points="649.5,-162.5 649.5,-192.5 935.5,-192.5 935.5,-162.5 649.5,-162.5"/>
<text text-anchor="start" x="656.5" y="-173.9" font-family="Arial" font-size="14.00" fill="#000000">last_seen    </text>
<text text-anchor="start" x="750.615" y="-173.9" font-family="Arial" font-size="14.00" fill="#666666">[timestamp with time zone]</text>
<polygon fill="none" stroke="#000000" points="649.5,-132.5 649.5,-162.5 935.5,-162.5 935.5,-132.5 649.5,-132.5"/>
<text text-anchor="start" x="656.3731" y="-143.9" font-family="Arial" font-size="14.00" fill="#000000">date_joined    </text>
<text text-anchor="start" x="762.9425" y="-143.9" font-family="Arial" font-size="14.00" fill="#666666">[timestamp with time zone]</text>
<polygon fill="none" stroke="#000000" points="649.5,-102.5 649.5,-132.5 935.5,-132.5 935.5,-102.5 649.5,-102.5"/>
<text text-anchor="start" x="656.5" y="-113.9" font-family="Arial" font-size="14.00" fill="#000000">created_at    </text>
<text text-anchor="start" x="756.8422" y="-113.9" font-family="Arial" font-size="14.00" fill="#666666">[timestamp with time zone]</text>
<polygon fill="none" stroke="#000000" points="649.5,-72.5 649.5,-102.5 935.5,-102.5 935.5,-72.5 649.5,-72.5"/>
<text text-anchor="start" x="656.5" y="-83.9" font-family="Arial" font-size="14.00" fill="#000000">created_by    </text>
<text text-anchor="start" x="759.9516" y="-83.9" font-family="Arial" font-size="14.00" fill="#666666">[integer]</text>
<polygon fill="none" stroke="#000000" points="649.5,-42.5 649.5,-72.5 935.5,-72.5 935.5,-42.5 649.5,-42.5"/>
<text text-anchor="start" x="656.5" y="-53.9" font-family="Arial" font-size="14.00" fill="#000000">updated_at    </text>
<text text-anchor="start" x="760.7468" y="-53.9" font-family="Arial" font-size="14.00" fill="#666666">[timestamp with time zone]</text>
</g>
<!-- auth.spaces&#45;&gt;auth.users -->
<g id="edge6" class="edge">
<title>auth.spaces:created_by&#45;&gt;auth.users:id</title>
<path fill="none" stroke="#000000" d="M928.8948,-846.8712C1009.5146,-836.6614 977.7036,-704.6545 918.5,-637 839.0658,-546.227 728.9342,-691.773 649.5,-601 622.1339,-569.7276 607.9444,-507.5 649.5,-507.5"/>
<polygon fill="#000000" stroke="#000000" points="928.4818,-846.8961 918.2282,-843.0082 923.4909,-847.198 918.5,-847.5 918.5,-847.5 918.5,-847.5 923.4909,-847.198 918.7718,-851.9918 928.4818,-846.8961 928.4818,-846.8961"/>
<text text-anchor="start" x="925.3725" y="-857.5" font-family="Arial" font-size="10.00" fill="#000000">FOREIGN KEY (created_by) REFERENCES auth.users(id) ON DELETE SET NULL</text>
</g>
<!-- auth.spaces&#45;&gt;auth.users -->
<g id="edge7" class="edge">
<title>auth.spaces:updated_by&#45;&gt;auth.users:id</title>
<path fill="none" stroke="#000000" d="M928.6801,-786.6259C982.8274,-776.6937 960.1402,-684.5841 918.5,-637 839.0658,-546.227 728.9342,-691.773 649.5,-601 622.1339,-569.7276 607.9444,-507.5 649.5,-507.5"/>
<polygon fill="#000000" stroke="#000000" points="928.4633,-786.6444 918.115,-783.0165 923.4817,-787.0722 918.5,-787.5 918.5,-787.5 918.5,-787.5 923.4817,-787.0722 918.885,-791.9835 928.4633,-786.6444 928.4633,-786.6444"/>
<text text-anchor="start" x="925.978" y="-797.5" font-family="Arial" font-size="10.00" fill="#000000">FOREIGN KEY (updated_by) REFERENCES auth.users(id) ON DELETE SET NULL</text>
</g>
<!-- auth.spaces&#45;&gt;auth.users -->
<g id="edge8" class="edge">
<title>auth.spaces:deleted_by&#45;&gt;auth.users:id</title>
<path fill="none" stroke="#000000" d="M928.4238,-725.9862C956.035,-716.47 942.5047,-664.4313 918.5,-637 839.0658,-546.227 728.9342,-691.773 649.5,-601 622.1339,-569.7276 607.9444,-507.5 649.5,-507.5"/>
<polygon fill="#000000" stroke="#000000" points="928.3856,-725.9919 917.8214,-723.0515 923.4428,-726.746 918.5,-727.5 918.5,-727.5 918.5,-727.5 923.4428,-726.746 919.1786,-731.9485 928.3856,-725.9919 928.3856,-725.9919"/>
<text text-anchor="start" x="925.648" y="-737.5" font-family="Arial" font-size="10.00" fill="#000000">FOREIGN KEY (deleted_by) REFERENCES auth.users(id) ON DELETE SET NULL</text>
</g>
<!-- auth.space_users -->
<g id="node2" class="node">
<title>auth.space_users</title>
<polygon fill="#efefef" stroke="transparent" points="43.5,-1472.5 43.5,-1507.5 326.5,-1507.5 326.5,-1472.5 43.5,-1472.5"/>
<polygon fill="none" stroke="#000000" points="43.5,-1472.5 43.5,-1507.5 326.5,-1507.5 326.5,-1472.5 43.5,-1472.5"/>
<text text-anchor="start" x="50.1898" y="-1485.3" font-family="Arial Bold" font-size="18.00" fill="#000000">auth.space_users</text>
<text text-anchor="start" x="192.2422" y="-1485.3" font-family="Arial" font-size="14.00" fill="#000000">    </text>
<text text-anchor="start" x="226.447" y="-1485.3" font-family="Arial" font-size="14.00" fill="#666666">[BASE TABLE]</text>
<polygon fill="none" stroke="#000000" points="43.5,-1442.5 43.5,-1472.5 326.5,-1472.5 326.5,-1442.5 43.5,-1442.5"/>
<text text-anchor="start" x="50.5" y="-1453.9" font-family="Arial" font-size="14.00" fill="#000000">user_id    </text>
<text text-anchor="start" x="130.6024" y="-1453.9" font-family="Arial" font-size="14.00" fill="#666666">[integer]</text>
<polygon fill="none" stroke="#000000" points="43.5,-1412.5 43.5,-1442.5 326.5,-1442.5 326.5,-1412.5 43.5,-1412.5"/>
<text text-anchor="start" x="50.5" y="-1423.9" font-family="Arial" font-size="14.00" fill="#000000">space_id    </text>
<text text-anchor="start" x="140.7244" y="-1423.9" font-family="Arial" font-size="14.00" fill="#666666">[integer]</text>
<polygon fill="none" stroke="#000000" points="43.5,-1382.5 43.5,-1412.5 326.5,-1412.5 326.5,-1382.5 43.5,-1382.5"/>
<text text-anchor="start" x="50.5" y="-1393.9" font-family="Arial" font-size="14.00" fill="#000000">role    </text>
<text text-anchor="start" x="108.0372" y="-1393.9" font-family="Arial" font-size="14.00" fill="#666666">[auth.roles]</text>
<polygon fill="none" stroke="#000000" points="43.5,-1352.5 43.5,-1382.5 326.5,-1382.5 326.5,-1352.5 43.5,-1352.5"/>
<text text-anchor="start" x="50.5" y="-1363.9" font-family="Arial" font-size="14.00" fill="#000000">created_by    </text>
<text text-anchor="start" x="153.9516" y="-1363.9" font-family="Arial" font-size="14.00" fill="#666666">[integer]</text>
<polygon fill="none" stroke="#000000" points="43.5,-1322.5 43.5,-1352.5 326.5,-1352.5 326.5,-1322.5 43.5,-1322.5"/>
<text text-anchor="start" x="50.5" y="-1333.9" font-family="Arial" font-size="14.00" fill="#000000">created_at    </text>
<text text-anchor="start" x="150.8422" y="-1333.9" font-family="Arial" font-size="14.00" fill="#666666">[timestamp with time zone]</text>
</g>
<!-- auth.space_users&#45;&gt;auth.spaces -->
<g id="edge2" class="edge">
<title>auth.space_users:space_id&#45;&gt;auth.spaces:id</title>
<path fill="none" stroke="#000000" d="M336.5008,-1427.0013C426.4076,-1417.3992 312.2292,-1271.4513 377.5,-1190 465.6079,-1080.0504 524.6032,-1057.5 665.5,-1057.5"/>
<polygon fill="#000000" stroke="#000000" points="336.4876,-1427.0018 326.2758,-1423.0056 331.4938,-1427.2509 326.5,-1427.5 326.5,-1427.5 326.5,-1427.5 331.4938,-1427.2509 326.7242,-1431.9944 336.4876,-1427.0018 336.4876,-1427.0018"/>
<text text-anchor="start" x="196.487" y="-1411.5" font-family="Arial" font-size="10.00" fill="#000000">FOREIGN KEY (space_id) REFERENCES auth.spaces(id)</text>
</g>
<!-- auth.space_invitations -->
<g id="node3" class="node">
<title>auth.space_invitations</title>
<polygon fill="#efefef" stroke="transparent" points="430.5,-1442.5 430.5,-1477.5 749.5,-1477.5 749.5,-1442.5 430.5,-1442.5"/>
<polygon fill="none" stroke="#000000" points="430.5,-1442.5 430.5,-1477.5 749.5,-1477.5 749.5,-1442.5 430.5,-1442.5"/>
<text text-anchor="start" x="437.1862" y="-1455.3" font-family="Arial Bold" font-size="18.00" fill="#000000">auth.space_invitations</text>
<text text-anchor="start" x="615.2458" y="-1455.3" font-family="Arial" font-size="14.00" fill="#000000">    </text>
<text text-anchor="start" x="649.4506" y="-1455.3" font-family="Arial" font-size="14.00" fill="#666666">[BASE TABLE]</text>
<polygon fill="none" stroke="#000000" points="430.5,-1412.5 430.5,-1442.5 749.5,-1442.5 749.5,-1412.5 430.5,-1412.5"/>
<text text-anchor="start" x="437.5" y="-1423.9" font-family="Arial" font-size="14.00" fill="#000000">invitation_id    </text>
<text text-anchor="start" x="545.608" y="-1423.9" font-family="Arial" font-size="14.00" fill="#666666">[integer]</text>
<polygon fill="none" stroke="#000000" points="430.5,-1382.5 430.5,-1412.5 749.5,-1412.5 749.5,-1382.5 430.5,-1382.5"/>
<text text-anchor="start" x="437.5" y="-1393.9" font-family="Arial" font-size="14.00" fill="#000000">space_id    </text>
<text text-anchor="start" x="527.7244" y="-1393.9" font-family="Arial" font-size="14.00" fill="#666666">[integer]</text>
<polygon fill="none" stroke="#000000" points="430.5,-1352.5 430.5,-1382.5 749.5,-1382.5 749.5,-1352.5 430.5,-1352.5"/>
<text text-anchor="start" x="437.5" y="-1363.9" font-family="Arial" font-size="14.00" fill="#000000">role    </text>
<text text-anchor="start" x="495.0372" y="-1363.9" font-family="Arial" font-size="14.00" fill="#666666">[auth.roles]</text>
</g>
<!-- auth.space_invitations&#45;&gt;auth.spaces -->
<g id="edge3" class="edge">
<title>auth.space_invitations:space_id&#45;&gt;auth.spaces:id</title>
<path fill="none" stroke="#000000" d="M759.5507,-1396.9485C886.9271,-1381.7493 513.4936,-1057.5 665.5,-1057.5"/>
<polygon fill="#000000" stroke="#000000" points="759.485,-1396.952 749.2534,-1393.0068 754.4925,-1397.226 749.5,-1397.5 749.5,-1397.5 749.5,-1397.5 754.4925,-1397.226 749.7466,-1401.9932 759.485,-1396.952 759.485,-1396.952"/>
<text text-anchor="start" x="756.487" y="-1407.5" font-family="Arial" font-size="10.00" fill="#000000">FOREIGN KEY (space_id) REFERENCES auth.spaces(id)</text>
</g>
<!-- main.resource_a -->
<g id="node4" class="node">
<title>main.resource_a</title>
<polygon fill="#efefef" stroke="transparent" points="853.5,-1562.5 853.5,-1597.5 1136.5,-1597.5 1136.5,-1562.5 853.5,-1562.5"/>
<polygon fill="none" stroke="#000000" points="853.5,-1562.5 853.5,-1597.5 1136.5,-1597.5 1136.5,-1562.5 853.5,-1562.5"/>
<text text-anchor="start" x="864.2047" y="-1575.3" font-family="Arial Bold" font-size="18.00" fill="#000000">main.resource_a</text>
<text text-anchor="start" x="998.2273" y="-1575.3" font-family="Arial" font-size="14.00" fill="#000000">    </text>
<text text-anchor="start" x="1032.4321" y="-1575.3" font-family="Arial" font-size="14.00" fill="#666666">[BASE TABLE]</text>
<polygon fill="none" stroke="#000000" points="853.5,-1532.5 853.5,-1562.5 1136.5,-1562.5 1136.5,-1532.5 853.5,-1532.5"/>
<text text-anchor="start" x="860.5" y="-1543.9" font-family="Arial" font-size="14.00" fill="#000000">id    </text>
<text text-anchor="start" x="905.594" y="-1543.9" font-family="Arial" font-size="14.00" fill="#666666">[integer]</text>
<polygon fill="none" stroke="#000000" points="853.5,-1502.5 853.5,-1532.5 1136.5,-1532.5 1136.5,-1502.5 853.5,-1502.5"/>
<text text-anchor="start" x="860.5" y="-1513.9" font-family="Arial" font-size="14.00" fill="#000000">space_id    </text>
<text text-anchor="start" x="950.7244" y="-1513.9" font-family="Arial" font-size="14.00" fill="#666666">[integer]</text>
<polygon fill="none" stroke="#000000" points="853.5,-1472.5 853.5,-1502.5 1136.5,-1502.5 1136.5,-1472.5 853.5,-1472.5"/>
<text text-anchor="start" x="860.5" y="-1483.9" font-family="Arial" font-size="14.00" fill="#000000">slug    </text>
<text text-anchor="start" x="920.3766" y="-1483.9" font-family="Arial" font-size="14.00" fill="#666666">[varchar(12)]</text>
<polygon fill="none" stroke="#000000" points="853.5,-1442.5 853.5,-1472.5 1136.5,-1472.5 1136.5,-1442.5 853.5,-1442.5"/>
<text text-anchor="start" x="860.5" y="-1453.9" font-family="Arial" font-size="14.00" fill="#000000">title    </text>
<text text-anchor="start" x="916.4818" y="-1453.9" font-family="Arial" font-size="14.00" fill="#666666">[varchar(100)]</text>
<polygon fill="none" stroke="#000000" points="853.5,-1412.5 853.5,-1442.5 1136.5,-1442.5 1136.5,-1412.5 853.5,-1412.5"/>
<text text-anchor="start" x="860.5" y="-1423.9" font-family="Arial" font-size="14.00" fill="#000000">content    </text>
<text text-anchor="start" x="940.6164" y="-1423.9" font-family="Arial" font-size="14.00" fill="#666666">[text]</text>
<polygon fill="none" stroke="#000000" points="853.5,-1382.5 853.5,-1412.5 1136.5,-1412.5 1136.5,-1382.5 853.5,-1382.5"/>
<text text-anchor="start" x="860.5" y="-1393.9" font-family="Arial" font-size="14.00" fill="#000000">created_at    </text>
<text text-anchor="start" x="960.8422" y="-1393.9" font-family="Arial" font-size="14.00" fill="#666666">[timestamp with time zone]</text>
<polygon fill="none" stroke="#000000" points="853.5,-1352.5 853.5,-1382.5 1136.5,-1382.5 1136.5,-1352.5 853.5,-1352.5"/>
<text text-anchor="start" x="860.5" y="-1363.9" font-family="Arial" font-size="14.00" fill="#000000">created_by    </text>
<text text-anchor="start" x="963.9516" y="-1363.9" font-family="Arial" font-size="14.00" fill="#666666">[integer]</text>
<polygon fill="none" stroke="#000000" points="853.5,-1322.5 853.5,-1352.5 1136.5,-1352.5 1136.5,-1322.5 853.5,-1322.5"/>
<text text-anchor="start" x="860.0344" y="-1333.9" font-family="Arial" font-size="14.00" fill="#000000">updated_at    </text>
<text text-anchor="start" x="964.2812" y="-1333.9" font-family="Arial" font-size="14.00" fill="#666666">[timestamp with time zone]</text>
<polygon fill="none" stroke="#000000" points="853.5,-1292.5 853.5,-1322.5 1136.5,-1322.5 1136.5,-1292.5 853.5,-1292.5"/>
<text text-anchor="start" x="860.5" y="-1303.9" font-family="Arial" font-size="14.00" fill="#000000">updated_by    </text>
<text text-anchor="start" x="967.8562" y="-1303.9" font-family="Arial" font-size="14.00" fill="#666666">[integer]</text>
<polygon fill="none" stroke="#000000" points="853.5,-1262.5 853.5,-1292.5 1136.5,-1292.5 1136.5,-1262.5 853.5,-1262.5"/>
<text text-anchor="start" x="860.5" y="-1273.9" font-family="Arial" font-size="14.00" fill="#000000">deleted_at    </text>
<text text-anchor="start" x="960.0708" y="-1273.9" font-family="Arial" font-size="14.00" fill="#666666">[timestamp with time zone]</text>
<polygon fill="none" stroke="#000000" points="853.5,-1232.5 853.5,-1262.5 1136.5,-1262.5 1136.5,-1232.5 853.5,-1232.5"/>
<text text-anchor="start" x="860.5" y="-1243.9" font-family="Arial" font-size="14.00" fill="#000000">deleted_by    </text>
<text text-anchor="start" x="963.1802" y="-1243.9" font-family="Arial" font-size="14.00" fill="#666666">[integer]</text>
</g>
<!-- main.resource_a&#45;&gt;auth.spaces -->
<g id="edge4" class="edge">
<title>main.resource_a:space_id&#45;&gt;auth.spaces:id</title>
<path fill="none" stroke="#000000" d="M843.6035,-1515.6604C784.2238,-1492.1226 818.3555,-1249.6393 853.5,-1190 870.2659,-1161.5487 901.7341,-1182.4513 918.5,-1154 940.2743,-1117.0495 961.3889,-1057.5 918.5,-1057.5"/>
<polygon fill="#000000" stroke="#000000" points="843.6684,-1515.6724 852.6776,-1521.9242 848.5842,-1516.5862 853.5,-1517.5 853.5,-1517.5 853.5,-1517.5 848.5842,-1516.5862 854.3224,-1513.0758 843.6684,-1515.6724 843.6684,-1515.6724"/>
<text text-anchor="start" x="476.206" y="-1527.5" font-family="Arial" font-size="10.00" fill="#000000">FOREIGN KEY (space_id) REFERENCES auth.spaces(id) ON DELETE CASCADE</text>
</g>
<!-- main.resource_b -->
<g id="node5" class="node">
<title>main.resource_b</title>
<polygon fill="#efefef" stroke="transparent" points="1240.5,-1562.5 1240.5,-1597.5 1523.5,-1597.5 1523.5,-1562.5 1240.5,-1562.5"/>
<polygon fill="none" stroke="#000000" points="1240.5,-1562.5 1240.5,-1597.5 1523.5,-1597.5 1523.5,-1562.5 1240.5,-1562.5"/>
<text text-anchor="start" x="1251.2047" y="-1575.3" font-family="Arial Bold" font-size="18.00" fill="#000000">main.resource_b</text>
<text text-anchor="start" x="1385.2273" y="-1575.3" font-family="Arial" font-size="14.00" fill="#000000">    </text>
<text text-anchor="start" x="1419.4321" y="-1575.3" font-family="Arial" font-size="14.00" fill="#666666">[BASE TABLE]</text>
<polygon fill="none" stroke="#000000" points="1240.5,-1532.5 1240.5,-1562.5 1523.5,-1562.5 1523.5,-1532.5 1240.5,-1532.5"/>
<text text-anchor="start" x="1247.5" y="-1543.9" font-family="Arial" font-size="14.00" fill="#000000">id    </text>
<text text-anchor="start" x="1292.594" y="-1543.9" font-family="Arial" font-size="14.00" fill="#666666">[integer]</text>
<polygon fill="none" stroke="#000000" points="1240.5,-1502.5 1240.5,-1532.5 1523.5,-1532.5 1523.5,-1502.5 1240.5,-1502.5"/>
<text text-anchor="start" x="1247.5" y="-1513.9" font-family="Arial" font-size="14.00" fill="#000000">space_id    </text>
<text text-anchor="start" x="1337.7244" y="-1513.9" font-family="Arial" font-size="14.00" fill="#666666">[integer]</text>
<polygon fill="none" stroke="#000000" points="1240.5,-1472.5 1240.5,-1502.5 1523.5,-1502.5 1523.5,-1472.5 1240.5,-1472.5"/>
<text text-anchor="start" x="1247.5" y="-1483.9" font-family="Arial" font-size="14.00" fill="#000000">slug    </text>
<text text-anchor="start" x="1307.3766" y="-1483.9" font-family="Arial" font-size="14.00" fill="#666666">[varchar(12)]</text>
<polygon fill="none" stroke="#000000" points="1240.5,-1442.5 1240.5,-1472.5 1523.5,-1472.5 1523.5,-1442.5 1240.5,-1442.5"/>
<text text-anchor="start" x="1247.5" y="-1453.9" font-family="Arial" font-size="14.00" fill="#000000">title    </text>
<text text-anchor="start" x="1303.4818" y="-1453.9" font-family="Arial" font-size="14.00" fill="#666666">[varchar(100)]</text>
<polygon fill="none" stroke="#000000" points="1240.5,-1412.5 1240.5,-1442.5 1523.5,-1442.5 1523.5,-1412.5 1240.5,-1412.5"/>
<text text-anchor="start" x="1247.5" y="-1423.9" font-family="Arial" font-size="14.00" fill="#000000">content    </text>
<text text-anchor="start" x="1327.6164" y="-1423.9" font-family="Arial" font-size="14.00" fill="#666666">[text]</text>
<polygon fill="none" stroke="#000000" points="1240.5,-1382.5 1240.5,-1412.5 1523.5,-1412.5 1523.5,-1382.5 1240.5,-1382.5"/>
<text text-anchor="start" x="1247.5" y="-1393.9" font-family="Arial" font-size="14.00" fill="#000000">created_at    </text>
<text text-anchor="start" x="1347.8422" y="-1393.9" font-family="Arial" font-size="14.00" fill="#666666">[timestamp with time zone]</text>
<polygon fill="none" stroke="#000000" points="1240.5,-1352.5 1240.5,-1382.5 1523.5,-1382.5 1523.5,-1352.5 1240.5,-1352.5"/>
<text text-anchor="start" x="1247.5" y="-1363.9" font-family="Arial" font-size="14.00" fill="#000000">created_by    </text>
<text text-anchor="start" x="1350.9516" y="-1363.9" font-family="Arial" font-size="14.00" fill="#666666">[integer]</text>
<polygon fill="none" stroke="#000000" points="1240.5,-1322.5 1240.5,-1352.5 1523.5,-1352.5 1523.5,-1322.5 1240.5,-1322.5"/>
<text text-anchor="start" x="1247.0344" y="-1333.9" font-family="Arial" font-size="14.00" fill="#000000">updated_at    </text>
<text text-anchor="start" x="1351.2812" y="-1333.9" font-family="Arial" font-size="14.00" fill="#666666">[timestamp with time zone]</text>
<polygon fill="none" stroke="#000000" points="1240.5,-1292.5 1240.5,-1322.5 1523.5,-1322.5 1523.5,-1292.5 1240.5,-1292.5"/>
<text text-anchor="start" x="1247.5" y="-1303.9" font-family="Arial" font-size="14.00" fill="#000000">updated_by    </text>
<text text-anchor="start" x="1354.8562" y="-1303.9" font-family="Arial" font-size="14.00" fill="#666666">[integer]</text>
<polygon fill="none" stroke="#000000" points="1240.5,-1262.5 1240.5,-1292.5 1523.5,-1292.5 1523.5,-1262.5 1240.5,-1262.5"/>
<text text-anchor="start" x="1247.5" y="-1273.9" font-family="Arial" font-size="14.00" fill="#000000">deleted_at    </text>
<text text-anchor="start" x="1347.0708" y="-1273.9" font-family="Arial" font-size="14.00" fill="#666666">[timestamp with time zone]</text>
<polygon fill="none" stroke="#000000" points="1240.5,-1232.5 1240.5,-1262.5 1523.5,-1262.5 1523.5,-1232.5 1240.5,-1232.5"/>
<text text-anchor="start" x="1247.5" y="-1243.9" font-family="Arial" font-size="14.00" fill="#000000">deleted_by    </text>
<text text-anchor="start" x="1350.1802" y="-1243.9" font-family="Arial" font-size="14.00" fill="#666666">[integer]</text>
</g>
<!-- main.resource_b&#45;&gt;auth.spaces -->
<g id="edge5" class="edge">
<title>main.resource_b:space_id&#45;&gt;auth.spaces:id</title>
<path fill="none" stroke="#000000" d="M1230.672,-1515.6371C1172.9428,-1491.8048 1230.1344,-1246.386 1188.5,-1190 1109.0993,-1082.4666 1052.1709,-1057.5 918.5,-1057.5"/>
<polygon fill="#000000" stroke="#000000" points="1230.6749,-1515.6376 1239.6619,-1521.9213 1235.5875,-1516.5688 1240.5,-1517.5 1240.5,-1517.5 1240.5,-1517.5 1235.5875,-1516.5688 1241.3381,-1513.0787 1230.6749,-1515.6376 1230.6749,-1515.6376"/>
<text text-anchor="start" x="1247.206" y="-1527.5" font-family="Arial" font-size="10.00" fill="#000000">FOREIGN KEY (space_id) REFERENCES auth.spaces(id) ON DELETE CASCADE</text>
</g>
</g>
</svg>
