<?xml version="1.0" encoding="UTF-8" standalone="no"?>
<!DOCTYPE svg PUBLIC "-//W3C//DTD SVG 1.1//EN"
 "http://www.w3.org/Graphics/SVG/1.1/DTD/svg11.dtd">
<!-- Generated by graphviz version 2.40.1 (20161225.0304)
 -->
<!-- Title: auth.space_users Pages: 1 -->
<svg width="770pt" height="922pt"
 viewBox="0.00 0.00 770.00 922.00" xmlns="http://www.w3.org/2000/svg" xmlns:xlink="http://www.w3.org/1999/xlink">
<g id="graph0" class="graph" transform="scale(1 1) rotate(0) translate(4 918)">
<title>auth.space_users</title>
<polygon fill="#ffffff" stroke="transparent" points="-4,4 -4,-918 766,-918 766,4 -4,4"/>
<!-- auth.space_users -->
<g id="node1" class="node">
<title>auth.space_users</title>
<polygon fill="#efefef" stroke="transparent" points="46.5,-832.5 46.5,-867.5 329.5,-867.5 329.5,-832.5 46.5,-832.5"/>
<polygon fill="none" stroke="#000000" points="46.5,-832.5 46.5,-867.5 329.5,-867.5 329.5,-832.5 46.5,-832.5"/>
<text text-anchor="start" x="53.1898" y="-845.3" font-family="Arial Bold" font-size="18.00" fill="#000000">auth.space_users</text>
<text text-anchor="start" x="195.2422" y="-845.3" font-family="Arial" font-size="14.00" fill="#000000">    </text>
<text text-anchor="start" x="229.447" y="-845.3" font-family="Arial" font-size="14.00" fill="#666666">[BASE TABLE]</text>
<polygon fill="none" stroke="#000000" points="46.5,-802.5 46.5,-832.5 329.5,-832.5 329.5,-802.5 46.5,-802.5"/>
<text text-anchor="start" x="53.5" y="-813.9" font-family="Arial" font-size="14.00" fill="#000000">user_id </text>
<text text-anchor="start" x="103.2882" y="-813.9" font-family="Arial" font-size="14.00" fill="#666666">[integer]</text>
<polygon fill="none" stroke="#000000" points="46.5,-772.5 46.5,-802.5 329.5,-802.5 329.5,-772.5 46.5,-772.5"/>
<text text-anchor="start" x="53.5" y="-783.9" font-family="Arial" font-size="14.00" fill="#000000">space_id </text>
<text text-anchor="start" x="113.4102" y="-783.9" font-family="Arial" font-size="14.00" fill="#666666">[integer]</text>
<polygon fill="none" stroke="#000000" points="46.5,-742.5 46.5,-772.5 329.5,-772.5 329.5,-742.5 46.5,-742.5"/>
<text text-anchor="start" x="53.5" y="-753.9" font-family="Arial" font-size="14.00" fill="#000000">role </text>
<text text-anchor="start" x="80.723" y="-753.9" font-family="Arial" font-size="14.00" fill="#666666">[auth.roles]</text>
<polygon fill="none" stroke="#000000" points="46.5,-712.5 46.5,-742.5 329.5,-742.5 329.5,-712.5 46.5,-712.5"/>
<text text-anchor="start" x="53.5" y="-723.9" font-family="Arial" font-size="14.00" fill="#000000">created_by </text>
<text text-anchor="start" x="126.6374" y="-723.9" font-family="Arial" font-size="14.00" fill="#666666">[integer]</text>
<polygon fill="none" stroke="#000000" points="46.5,-682.5 46.5,-712.5 329.5,-712.5 329.5,-682.5 46.5,-682.5"/>
<text text-anchor="start" x="53.5" y="-693.9" font-family="Arial" font-size="14.00" fill="#000000">created_at </text>
<text text-anchor="start" x="123.528" y="-693.9" font-family="Arial" font-size="14.00" fill="#666666">[timestamp with time zone]</text>
<polygon fill="none" stroke="#000000" stroke-width="3" points="44.5,-681.5 44.5,-869.5 330.5,-869.5 330.5,-681.5 44.5,-681.5"/>
</g>
<!-- auth.users -->
<g id="node2" class="node">
<title>auth.users</title>
<polygon fill="#efefef" stroke="transparent" points="45.5,-522.5 45.5,-557.5 331.5,-557.5 331.5,-522.5 45.5,-522.5"/>
<polygon fill="none" stroke="#000000" points="45.5,-522.5 45.5,-557.5 331.5,-557.5 331.5,-522.5 45.5,-522.5"/>
<text text-anchor="start" x="82.7022" y="-535.3" font-family="Arial Bold" font-size="18.00" fill="#000000">auth.users</text>
<text text-anchor="start" x="166.7298" y="-535.3" font-family="Arial" font-size="14.00" fill="#000000">    </text>
<text text-anchor="start" x="200.9346" y="-535.3" font-family="Arial" font-size="14.00" fill="#666666">[BASE TABLE]</text>
<polygon fill="none" stroke="#000000" points="45.5,-492.5 45.5,-522.5 331.5,-522.5 331.5,-492.5 45.5,-492.5"/>
<text text-anchor="start" x="52.5" y="-503.9" font-family="Arial" font-size="14.00" fill="#000000">id    </text>
<text text-anchor="start" x="97.594" y="-503.9" font-family="Arial" font-size="14.00" fill="#666666">[integer]</text>
<polygon fill="none" stroke="#000000" points="45.5,-462.5 45.5,-492.5 331.5,-492.5 331.5,-462.5 45.5,-462.5"/>
<text text-anchor="start" x="52.5" y="-473.9" font-family="Arial" font-size="14.00" fill="#000000">username    </text>
<text text-anchor="start" x="148.939" y="-473.9" font-family="Arial" font-size="14.00" fill="#666666">[varchar(100)]</text>
<polygon fill="none" stroke="#000000" points="45.5,-432.5 45.5,-462.5 331.5,-462.5 331.5,-432.5 45.5,-432.5"/>
<text text-anchor="start" x="52.5" y="-443.9" font-family="Arial" font-size="14.00" fill="#000000">first_name    </text>
<text text-anchor="start" x="152.0442" y="-443.9" font-family="Arial" font-size="14.00" fill="#666666">[varchar(150)]</text>
<polygon fill="none" stroke="#000000" points="45.5,-402.5 45.5,-432.5 331.5,-432.5 331.5,-402.5 45.5,-402.5"/>
<text text-anchor="start" x="52.5" y="-413.9" font-family="Arial" font-size="14.00" fill="#000000">last_name    </text>
<text text-anchor="start" x="151.2756" y="-413.9" font-family="Arial" font-size="14.00" fill="#666666">[varchar(150)]</text>
<polygon fill="none" stroke="#000000" points="45.5,-372.5 45.5,-402.5 331.5,-402.5 331.5,-372.5 45.5,-372.5"/>
<text text-anchor="start" x="52.5" y="-383.9" font-family="Arial" font-size="14.00" fill="#000000">email    </text>
<text text-anchor="start" x="120.1438" y="-383.9" font-family="Arial" font-size="14.00" fill="#666666">[varchar(360)]</text>
<polygon fill="none" stroke="#000000" points="45.5,-342.5 45.5,-372.5 331.5,-372.5 331.5,-342.5 45.5,-342.5"/>
<text text-anchor="start" x="52.5" y="-353.9" font-family="Arial" font-size="14.00" fill="#000000">password    </text>
<text text-anchor="start" x="146.6024" y="-353.9" font-family="Arial" font-size="14.00" fill="#666666">[varchar(255)]</text>
<polygon fill="none" stroke="#000000" points="45.5,-312.5 45.5,-342.5 331.5,-342.5 331.5,-312.5 45.5,-312.5"/>
<text text-anchor="start" x="52.5" y="-323.9" font-family="Arial" font-size="14.00" fill="#000000">lang    </text>
<text text-anchor="start" x="113.1592" y="-323.9" font-family="Arial" font-size="14.00" fill="#666666">[auth.langs]</text>
<polygon fill="none" stroke="#000000" points="45.5,-282.5 45.5,-312.5 331.5,-312.5 331.5,-282.5 45.5,-282.5"/>
<text text-anchor="start" x="52.5" y="-293.9" font-family="Arial" font-size="14.00" fill="#000000">is_active    </text>
<text text-anchor="start" x="141.1564" y="-293.9" font-family="Arial" font-size="14.00" fill="#666666">[boolean]</text>
<polygon fill="none" stroke="#000000" points="45.5,-252.5 45.5,-282.5 331.5,-282.5 331.5,-252.5 45.5,-252.5"/>
<text text-anchor="start" x="52.5" y="-263.9" font-family="Arial" font-size="14.00" fill="#000000">is_superuser    </text>
<text text-anchor="start" x="166.8282" y="-263.9" font-family="Arial" font-size="14.00" fill="#666666">[boolean]</text>
<polygon fill="none" stroke="#000000" points="45.5,-222.5 45.5,-252.5 331.5,-252.5 331.5,-222.5 45.5,-222.5"/>
<text text-anchor="start" x="52.5" y="-233.9" font-family="Arial" font-size="14.00" fill="#000000">is_serviceuser    </text>
<text text-anchor="start" x="176.1522" y="-233.9" font-family="Arial" font-size="14.00" fill="#666666">[boolean]</text>
<polygon fill="none" stroke="#000000" points="45.5,-192.5 45.5,-222.5 331.5,-222.5 331.5,-192.5 45.5,-192.5"/>
<text text-anchor="start" x="52.5" y="-203.9" font-family="Arial" font-size="14.00" fill="#000000">last_login    </text>
<text text-anchor="start" x="145.8282" y="-203.9" font-family="Arial" font-size="14.00" fill="#666666">[timestamp with time zone]</text>
<polygon fill="none" stroke="#000000" points="45.5,-162.5 45.5,-192.5 331.5,-192.5 331.5,-162.5 45.5,-162.5"/>
<text text-anchor="start" x="52.5" y="-173.9" font-family="Arial" font-size="14.00" fill="#000000">last_seen    </text>
<text text-anchor="start" x="146.615" y="-173.9" font-family="Arial" font-size="14.00" fill="#666666">[timestamp with time zone]</text>
<polygon fill="none" stroke="#000000" points="45.5,-132.5 45.5,-162.5 331.5,-162.5 331.5,-132.5 45.5,-132.5"/>
<text text-anchor="start" x="52.3731" y="-143.9" font-family="Arial" font-size="14.00" fill="#000000">date_joined    </text>
<text text-anchor="start" x="158.9425" y="-143.9" font-family="Arial" font-size="14.00" fill="#666666">[timestamp with time zone]</text>
<polygon fill="none" stroke="#000000" points="45.5,-102.5 45.5,-132.5 331.5,-132.5 331.5,-102.5 45.5,-102.5"/>
<text text-anchor="start" x="52.5" y="-113.9" font-family="Arial" font-size="14.00" fill="#000000">created_at    </text>
<text text-anchor="start" x="152.8422" y="-113.9" font-family="Arial" font-size="14.00" fill="#666666">[timestamp with time zone]</text>
<polygon fill="none" stroke="#000000" points="45.5,-72.5 45.5,-102.5 331.5,-102.5 331.5,-72.5 45.5,-72.5"/>
<text text-anchor="start" x="52.5" y="-83.9" font-family="Arial" font-size="14.00" fill="#000000">created_by    </text>
<text text-anchor="start" x="155.9516" y="-83.9" font-family="Arial" font-size="14.00" fill="#666666">[integer]</text>
<polygon fill="none" stroke="#000000" points="45.5,-42.5 45.5,-72.5 331.5,-72.5 331.5,-42.5 45.5,-42.5"/>
<text text-anchor="start" x="52.5" y="-53.9" font-family="Arial" font-size="14.00" fill="#000000">updated_at    </text>
<text text-anchor="start" x="156.7468" y="-53.9" font-family="Arial" font-size="14.00" fill="#666666">[timestamp with time zone]</text>
</g>
<!-- auth.space_users&#45;&gt;auth.users -->
<g id="edge1" class="edge">
<title>auth.space_users:user_id&#45;&gt;auth.users:id</title>
<path fill="none" stroke="#000000" d="M339.6684,-816.788C407.2278,-806.8119 380.1565,-694.4831 329.5,-637 245.38,-541.5438 129.62,-696.4562 45.5,-601 18.0254,-569.8229 3.9444,-507.5 45.5,-507.5"/>
<polygon fill="#000000" stroke="#000000" points="339.4756,-816.8014 329.1856,-813.011 334.4878,-817.1507 329.5,-817.5 329.5,-817.5 329.5,-817.5 334.4878,-817.1507 329.8144,-821.989 339.4756,-816.8014 339.4756,-816.8014"/>
<text text-anchor="start" x="336.717" y="-827.5" font-family="Arial" font-size="10.00" fill="#000000">FOREIGN KEY (user_id) REFERENCES auth.users(id)</text>
</g>
<!-- auth.space_users&#45;&gt;auth.users -->
<g id="edge3" class="edge">
<title>auth.space_users:created_by&#45;&gt;auth.users:id</title>
<path fill="none" stroke="#000000" d="M339.4263,-725.984C367.0528,-716.4544 353.5999,-664.3477 329.5,-637 245.38,-541.5438 129.62,-696.4562 45.5,-601 18.0254,-569.8229 3.9444,-507.5 45.5,-507.5"/>
<polygon fill="#000000" stroke="#000000" points="339.3854,-725.9902 328.8206,-723.0516 334.4427,-726.7451 329.5,-727.5 329.5,-727.5 329.5,-727.5 334.4427,-726.7451 330.1794,-731.9484 339.3854,-725.9902 339.3854,-725.9902"/>
<text text-anchor="start" x="336.3725" y="-737.5" font-family="Arial" font-size="10.00" fill="#000000">FOREIGN KEY (created_by) REFERENCES auth.users(id) ON DELETE SET NULL</text>
</g>
<!-- auth.spaces -->
<g id="node3" class="node">
<title>auth.spaces</title>
<polygon fill="#efefef" stroke="transparent" points="436.5,-477.5 436.5,-512.5 719.5,-512.5 719.5,-477.5 436.5,-477.5"/>
<polygon fill="none" stroke="#000000" points="436.5,-477.5 436.5,-512.5 719.5,-512.5 719.5,-477.5 436.5,-477.5"/>
<text text-anchor="start" x="465.6952" y="-490.3" font-family="Arial Bold" font-size="18.00" fill="#000000">auth.spaces</text>
<text text-anchor="start" x="562.7368" y="-490.3" font-family="Arial" font-size="14.00" fill="#000000">    </text>
<text text-anchor="start" x="596.9416" y="-490.3" font-family="Arial" font-size="14.00" fill="#666666">[BASE TABLE]</text>
<polygon fill="none" stroke="#000000" points="436.5,-447.5 436.5,-477.5 719.5,-477.5 719.5,-447.5 436.5,-447.5"/>
<text text-anchor="start" x="443.5" y="-458.9" font-family="Arial" font-size="14.00" fill="#000000">id    </text>
<text text-anchor="start" x="488.594" y="-458.9" font-family="Arial" font-size="14.00" fill="#666666">[integer]</text>
<polygon fill="none" stroke="#000000" points="436.5,-417.5 436.5,-447.5 719.5,-447.5 719.5,-417.5 436.5,-417.5"/>
<text text-anchor="start" x="443.5" y="-428.9" font-family="Arial" font-size="14.00" fill="#000000">parent_space_id    </text>
<text text-anchor="start" x="581.1886" y="-428.9" font-family="Arial" font-size="14.00" fill="#666666">[integer]</text>
<polygon fill="none" stroke="#000000" points="436.5,-387.5 436.5,-417.5 719.5,-417.5 719.5,-387.5 436.5,-387.5"/>
<text text-anchor="start" x="443.5" y="-398.9" font-family="Arial" font-size="14.00" fill="#000000">slug    </text>
<text text-anchor="start" x="503.3766" y="-398.9" font-family="Arial" font-size="14.00" fill="#666666">[varchar(100)]</text>
<polygon fill="none" stroke="#000000" points="436.5,-357.5 436.5,-387.5 719.5,-387.5 719.5,-357.5 436.5,-357.5"/>
<text text-anchor="start" x="443.5" y="-368.9" font-family="Arial" font-size="14.00" fill="#000000">title    </text>
<text text-anchor="start" x="499.4818" y="-368.9" font-family="Arial" font-size="14.00" fill="#666666">[varchar(100)]</text>
<polygon fill="none" stroke="#000000" points="436.5,-327.5 436.5,-357.5 719.5,-357.5 719.5,-327.5 436.5,-327.5"/>
<text text-anchor="start" x="443.5" y="-338.9" font-family="Arial" font-size="14.00" fill="#000000">description    </text>
<text text-anchor="start" x="545.3822" y="-338.9" font-family="Arial" font-size="14.00" fill="#666666">[text]</text>
<polygon fill="none" stroke="#000000" points="436.5,-297.5 436.5,-327.5 719.5,-327.5 719.5,-297.5 436.5,-297.5"/>
<text text-anchor="start" x="443.5" y="-308.9" font-family="Arial" font-size="14.00" fill="#000000">is_publicly_browsable    </text>
<text text-anchor="start" x="613.831" y="-308.9" font-family="Arial" font-size="14.00" fill="#666666">[boolean]</text>
<polygon fill="none" stroke="#000000" points="436.5,-267.5 436.5,-297.5 719.5,-297.5 719.5,-267.5 436.5,-267.5"/>
<text text-anchor="start" x="443.5" y="-278.9" font-family="Arial" font-size="14.00" fill="#000000">invitation_required    </text>
<text text-anchor="start" x="592.0596" y="-278.9" font-family="Arial" font-size="14.00" fill="#666666">[boolean]</text>
<polygon fill="none" stroke="#000000" points="436.5,-237.5 436.5,-267.5 719.5,-267.5 719.5,-237.5 436.5,-237.5"/>
<text text-anchor="start" x="443.5" y="-248.9" font-family="Arial" font-size="14.00" fill="#000000">created_by    </text>
<text text-anchor="start" x="546.9516" y="-248.9" font-family="Arial" font-size="14.00" fill="#666666">[integer]</text>
<polygon fill="none" stroke="#000000" points="436.5,-207.5 436.5,-237.5 719.5,-237.5 719.5,-207.5 436.5,-207.5"/>
<text text-anchor="start" x="443.5" y="-218.9" font-family="Arial" font-size="14.00" fill="#000000">created_at    </text>
<text text-anchor="start" x="543.8422" y="-218.9" font-family="Arial" font-size="14.00" fill="#666666">[timestamp with time zone]</text>
<polygon fill="none" stroke="#000000" points="436.5,-177.5 436.5,-207.5 719.5,-207.5 719.5,-177.5 436.5,-177.5"/>
<text text-anchor="start" x="443.5" y="-188.9" font-family="Arial" font-size="14.00" fill="#000000">updated_by    </text>
<text text-anchor="start" x="550.8562" y="-188.9" font-family="Arial" font-size="14.00" fill="#666666">[integer]</text>
<polygon fill="none" stroke="#000000" points="436.5,-147.5 436.5,-177.5 719.5,-177.5 719.5,-147.5 436.5,-147.5"/>
<text text-anchor="start" x="443.0344" y="-158.9" font-family="Arial" font-size="14.00" fill="#000000">updated_at    </text>
<text text-anchor="start" x="547.2812" y="-158.9" font-family="Arial" font-size="14.00" fill="#666666">[timestamp with time zone]</text>
<polygon fill="none" stroke="#000000" points="436.5,-117.5 436.5,-147.5 719.5,-147.5 719.5,-117.5 436.5,-117.5"/>
<text text-anchor="start" x="443.5" y="-128.9" font-family="Arial" font-size="14.00" fill="#000000">deleted_by    </text>
<text text-anchor="start" x="546.1802" y="-128.9" font-family="Arial" font-size="14.00" fill="#666666">[integer]</text>
<polygon fill="none" stroke="#000000" points="436.5,-87.5 436.5,-117.5 719.5,-117.5 719.5,-87.5 436.5,-87.5"/>
<text text-anchor="start" x="443.5" y="-98.9" font-family="Arial" font-size="14.00" fill="#000000">deleted_at    </text>
<text text-anchor="start" x="543.0708" y="-98.9" font-family="Arial" font-size="14.00" fill="#666666">[timestamp with time zone]</text>
</g>
<!-- auth.space_users&#45;&gt;auth.spaces -->
<g id="edge2" class="edge">
<title>auth.space_users:space_id&#45;&gt;auth.spaces:id</title>
<path fill="none" stroke="#000000" d="M339.4192,-785.4246C401.5764,-757.7454 364.0284,-462.5 436.5,-462.5"/>
<polygon fill="#000000" stroke="#000000" points="339.2881,-785.452 328.5784,-783.0954 334.394,-786.476 329.5,-787.5 329.5,-787.5 329.5,-787.5 334.394,-786.476 330.4216,-791.9046 339.2881,-785.452 339.2881,-785.452"/>
<text text-anchor="start" x="336.487" y="-797.5" font-family="Arial" font-size="10.00" fill="#000000">FOREIGN KEY (space_id) REFERENCES auth.spaces(id)</text>
</g>
</g>
</svg>
