<?xml version="1.0" encoding="UTF-8" standalone="no"?>
<!DOCTYPE svg PUBLIC "-//W3C//DTD SVG 1.1//EN"
 "http://www.w3.org/Graphics/SVG/1.1/DTD/svg11.dtd">
<!-- Generated by graphviz version 2.40.1 (20161225.0304)
 -->
<!-- Title: graphile_migrate.migrations Pages: 1 -->
<svg width="620pt" height="378pt"
 viewBox="0.00 0.00 619.97 378.00" xmlns="http://www.w3.org/2000/svg" xmlns:xlink="http://www.w3.org/1999/xlink">
<g id="graph0" class="graph" transform="scale(1 1) rotate(0) translate(4 374)">
<title>graphile_migrate.migrations</title>
<polygon fill="#ffffff" stroke="transparent" points="-4,4 -4,-374 615.966,-374 615.966,4 -4,4"/>
<!-- graphile_migrate.migrations -->
<g id="node1" class="node">
<title>graphile_migrate.migrations</title>
<polygon fill="#efefef" stroke="transparent" points="46.5,-165.5 46.5,-200.5 409.5,-200.5 409.5,-165.5 46.5,-165.5"/>
<polygon fill="none" stroke="#000000" points="46.5,-165.5 46.5,-200.5 409.5,-200.5 409.5,-165.5 46.5,-165.5"/>
<text text-anchor="start" x="53.2064" y="-178.3" font-family="Arial Bold" font-size="18.00" fill="#000000">graphile_migrate.migrations</text>
<text text-anchor="start" x="275.2256" y="-178.3" font-family="Arial" font-size="14.00" fill="#000000">    </text>
<text text-anchor="start" x="309.4304" y="-178.3" font-family="Arial" font-size="14.00" fill="#666666">[BASE TABLE]</text>
<polygon fill="none" stroke="#000000" points="46.5,-135.5 46.5,-165.5 409.5,-165.5 409.5,-135.5 46.5,-135.5"/>
<text text-anchor="start" x="53.5" y="-146.9" font-family="Arial" font-size="14.00" fill="#000000">hash </text>
<text text-anchor="start" x="87.7384" y="-146.9" font-family="Arial" font-size="14.00" fill="#666666">[text]</text>
<polygon fill="none" stroke="#000000" points="46.5,-105.5 46.5,-135.5 409.5,-135.5 409.5,-105.5 46.5,-105.5"/>
<text text-anchor="start" x="53.5" y="-116.9" font-family="Arial" font-size="14.00" fill="#000000">previous_hash </text>
<text text-anchor="start" x="148.4186" y="-116.9" font-family="Arial" font-size="14.00" fill="#666666">[text]</text>
<polygon fill="none" stroke="#000000" points="46.5,-75.5 46.5,-105.5 409.5,-105.5 409.5,-75.5 46.5,-75.5"/>
<text text-anchor="start" x="53.5" y="-86.9" font-family="Arial" font-size="14.00" fill="#000000">filename </text>
<text text-anchor="start" x="110.2854" y="-86.9" font-family="Arial" font-size="14.00" fill="#666666">[text]</text>
<polygon fill="none" stroke="#000000" points="46.5,-45.5 46.5,-75.5 409.5,-75.5 409.5,-45.5 46.5,-45.5"/>
<text text-anchor="start" x="53.5" y="-56.9" font-family="Arial" font-size="14.00" fill="#000000">date </text>
<text text-anchor="start" x="84.629" y="-56.9" font-family="Arial" font-size="14.00" fill="#666666">[timestamp with time zone]</text>
<polygon fill="none" stroke="#000000" stroke-width="3" points="44.5,-44.5 44.5,-202.5 410.5,-202.5 410.5,-44.5 44.5,-44.5"/>
</g>
<!-- graphile_migrate.migrations&#45;&gt;graphile_migrate.migrations -->
<g id="edge1" class="edge">
<title>graphile_migrate.migrations:previous_hash&#45;&gt;graphile_migrate.migrations:hash</title>
<path fill="none" stroke="#000000" d="M230.7887,-145.5775C237.4213,-232.4978 236.6584,-370 228.5,-370 220.0361,-370 219.5319,-248.5413 226.9874,-165.7307"/>
<polygon fill="#000000" stroke="#000000" points="230.7799,-145.4694 234.4511,-135.1363 230.373,-140.4859 229.966,-135.5025 229.966,-135.5025 229.966,-135.5025 230.373,-140.4859 225.481,-135.8688 230.7799,-145.4694 230.7799,-145.4694"/>
<text text-anchor="start" x="236.7845" y="-145.5025" font-family="Arial" font-size="10.00" fill="#000000">FOREIGN KEY (previous_hash) REFERENCES graphile_migrate.migrations(hash)</text>
</g>
</g>
</svg>
