<?xml version="1.0" encoding="UTF-8" standalone="no"?>
<!DOCTYPE svg PUBLIC "-//W3C//DTD SVG 1.1//EN"
 "http://www.w3.org/Graphics/SVG/1.1/DTD/svg11.dtd">
<!-- Generated by graphviz version 2.40.1 (20161225.0304)
 -->
<!-- Title: main.resource_a Pages: 1 -->
<svg width="1108pt" height="1102pt"
 viewBox="0.00 0.00 1107.50 1102.00" xmlns="http://www.w3.org/2000/svg" xmlns:xlink="http://www.w3.org/1999/xlink">
<g id="graph0" class="graph" transform="scale(1 1) rotate(0) translate(4 1098)">
<title>main.resource_a</title>
<polygon fill="#ffffff" stroke="transparent" points="-4,4 -4,-1098 1103.5,-1098 1103.5,4 -4,4"/>
<!-- main.resource_a -->
<g id="node1" class="node">
<title>main.resource_a</title>
<polygon fill="#efefef" stroke="transparent" points="435.5,-1012.5 435.5,-1047.5 710.5,-1047.5 710.5,-1012.5 435.5,-1012.5"/>
<polygon fill="none" stroke="#000000" points="435.5,-1012.5 435.5,-1047.5 710.5,-1047.5 710.5,-1012.5 435.5,-1012.5"/>
<text text-anchor="start" x="442.2047" y="-1025.3" font-family="Arial Bold" font-size="18.00" fill="#000000">main.resource_a</text>
<text text-anchor="start" x="576.2273" y="-1025.3" font-family="Arial" font-size="14.00" fill="#000000">    </text>
<text text-anchor="start" x="610.4321" y="-1025.3" font-family="Arial" font-size="14.00" fill="#666666">[BASE TABLE]</text>
<polygon fill="none" stroke="#000000" points="435.5,-982.5 435.5,-1012.5 710.5,-1012.5 710.5,-982.5 435.5,-982.5"/>
<text text-anchor="start" x="442.5" y="-993.9" font-family="Arial" font-size="14.00" fill="#000000">id </text>
<text text-anchor="start" x="457.2798" y="-993.9" font-family="Arial" font-size="14.00" fill="#666666">[integer]</text>
<polygon fill="none" stroke="#000000" points="435.5,-952.5 435.5,-982.5 710.5,-982.5 710.5,-952.5 435.5,-952.5"/>
<text text-anchor="start" x="442.5" y="-963.9" font-family="Arial" font-size="14.00" fill="#000000">space_id </text>
<text text-anchor="start" x="502.4102" y="-963.9" font-family="Arial" font-size="14.00" fill="#666666">[integer]</text>
<polygon fill="none" stroke="#000000" points="435.5,-922.5 435.5,-952.5 710.5,-952.5 710.5,-922.5 435.5,-922.5"/>
<text text-anchor="start" x="442.5" y="-933.9" font-family="Arial" font-size="14.00" fill="#000000">slug </text>
<text text-anchor="start" x="472.0624" y="-933.9" font-family="Arial" font-size="14.00" fill="#666666">[varchar(12)]</text>
<polygon fill="none" stroke="#000000" points="435.5,-892.5 435.5,-922.5 710.5,-922.5 710.5,-892.5 435.5,-892.5"/>
<text text-anchor="start" x="442.5" y="-903.9" font-family="Arial" font-size="14.00" fill="#000000">title </text>
<text text-anchor="start" x="468.1676" y="-903.9" font-family="Arial" font-size="14.00" fill="#666666">[varchar(100)]</text>
<polygon fill="none" stroke="#000000" points="435.5,-862.5 435.5,-892.5 710.5,-892.5 710.5,-862.5 435.5,-862.5"/>
<text text-anchor="start" x="442.5" y="-873.9" font-family="Arial" font-size="14.00" fill="#000000">content </text>
<text text-anchor="start" x="492.3022" y="-873.9" font-family="Arial" font-size="14.00" fill="#666666">[text]</text>
<polygon fill="none" stroke="#000000" points="435.5,-832.5 435.5,-862.5 710.5,-862.5 710.5,-832.5 435.5,-832.5"/>
<text text-anchor="start" x="442.5" y="-843.9" font-family="Arial" font-size="14.00" fill="#000000">created_at </text>
<text text-anchor="start" x="512.528" y="-843.9" font-family="Arial" font-size="14.00" fill="#666666">[timestamp with time zone]</text>
<polygon fill="none" stroke="#000000" points="435.5,-802.5 435.5,-832.5 710.5,-832.5 710.5,-802.5 435.5,-802.5"/>
<text text-anchor="start" x="442.5" y="-813.9" font-family="Arial" font-size="14.00" fill="#000000">created_by </text>
<text text-anchor="start" x="515.6374" y="-813.9" font-family="Arial" font-size="14.00" fill="#666666">[integer]</text>
<polygon fill="none" stroke="#000000" points="435.5,-772.5 435.5,-802.5 710.5,-802.5 710.5,-772.5 435.5,-772.5"/>
<text text-anchor="start" x="442.5" y="-783.9" font-family="Arial" font-size="14.00" fill="#000000">updated_at </text>
<text text-anchor="start" x="516.4326" y="-783.9" font-family="Arial" font-size="14.00" fill="#666666">[timestamp with time zone]</text>
<polygon fill="none" stroke="#000000" points="435.5,-742.5 435.5,-772.5 710.5,-772.5 710.5,-742.5 435.5,-742.5"/>
<text text-anchor="start" x="442.5" y="-753.9" font-family="Arial" font-size="14.00" fill="#000000">updated_by </text>
<text text-anchor="start" x="519.542" y="-753.9" font-family="Arial" font-size="14.00" fill="#666666">[integer]</text>
<polygon fill="none" stroke="#000000" points="435.5,-712.5 435.5,-742.5 710.5,-742.5 710.5,-712.5 435.5,-712.5"/>
<text text-anchor="start" x="442.5" y="-723.9" font-family="Arial" font-size="14.00" fill="#000000">deleted_at </text>
<text text-anchor="start" x="511.7566" y="-723.9" font-family="Arial" font-size="14.00" fill="#666666">[timestamp with time zone]</text>
<polygon fill="none" stroke="#000000" points="435.5,-682.5 435.5,-712.5 710.5,-712.5 710.5,-682.5 435.5,-682.5"/>
<text text-anchor="start" x="442.5" y="-693.9" font-family="Arial" font-size="14.00" fill="#000000">deleted_by </text>
<text text-anchor="start" x="514.866" y="-693.9" font-family="Arial" font-size="14.00" fill="#666666">[integer]</text>
<polygon fill="none" stroke="#000000" stroke-width="3" points="433.5,-681.5 433.5,-1049.5 711.5,-1049.5 711.5,-681.5 433.5,-681.5"/>
</g>
<!-- auth.spaces -->
<g id="node2" class="node">
<title>auth.spaces</title>
<polygon fill="#efefef" stroke="transparent" points="43.5,-477.5 43.5,-512.5 326.5,-512.5 326.5,-477.5 43.5,-477.5"/>
<polygon fill="none" stroke="#000000" points="43.5,-477.5 43.5,-512.5 326.5,-512.5 326.5,-477.5 43.5,-477.5"/>
<text text-anchor="start" x="72.6952" y="-490.3" font-family="Arial Bold" font-size="18.00" fill="#000000">auth.spaces</text>
<text text-anchor="start" x="169.7368" y="-490.3" font-family="Arial" font-size="14.00" fill="#000000">    </text>
<text text-anchor="start" x="203.9416" y="-490.3" font-family="Arial" font-size="14.00" fill="#666666">[BASE TABLE]</text>
<polygon fill="none" stroke="#000000" points="43.5,-447.5 43.5,-477.5 326.5,-477.5 326.5,-447.5 43.5,-447.5"/>
<text text-anchor="start" x="50.5" y="-458.9" font-family="Arial" font-size="14.00" fill="#000000">id    </text>
<text text-anchor="start" x="95.594" y="-458.9" font-family="Arial" font-size="14.00" fill="#666666">[integer]</text>
<polygon fill="none" stroke="#000000" points="43.5,-417.5 43.5,-447.5 326.5,-447.5 326.5,-417.5 43.5,-417.5"/>
<text text-anchor="start" x="50.5" y="-428.9" font-family="Arial" font-size="14.00" fill="#000000">parent_space_id    </text>
<text text-anchor="start" x="188.1886" y="-428.9" font-family="Arial" font-size="14.00" fill="#666666">[integer]</text>
<polygon fill="none" stroke="#000000" points="43.5,-387.5 43.5,-417.5 326.5,-417.5 326.5,-387.5 43.5,-387.5"/>
<text text-anchor="start" x="50.5" y="-398.9" font-family="Arial" font-size="14.00" fill="#000000">slug    </text>
<text text-anchor="start" x="110.3766" y="-398.9" font-family="Arial" font-size="14.00" fill="#666666">[varchar(100)]</text>
<polygon fill="none" stroke="#000000" points="43.5,-357.5 43.5,-387.5 326.5,-387.5 326.5,-357.5 43.5,-357.5"/>
<text text-anchor="start" x="50.5" y="-368.9" font-family="Arial" font-size="14.00" fill="#000000">title    </text>
<text text-anchor="start" x="106.4818" y="-368.9" font-family="Arial" font-size="14.00" fill="#666666">[varchar(100)]</text>
<polygon fill="none" stroke="#000000" points="43.5,-327.5 43.5,-357.5 326.5,-357.5 326.5,-327.5 43.5,-327.5"/>
<text text-anchor="start" x="50.5" y="-338.9" font-family="Arial" font-size="14.00" fill="#000000">description    </text>
<text text-anchor="start" x="152.3822" y="-338.9" font-family="Arial" font-size="14.00" fill="#666666">[text]</text>
<polygon fill="none" stroke="#000000" points="43.5,-297.5 43.5,-327.5 326.5,-327.5 326.5,-297.5 43.5,-297.5"/>
<text text-anchor="start" x="50.5" y="-308.9" font-family="Arial" font-size="14.00" fill="#000000">is_publicly_browsable    </text>
<text text-anchor="start" x="220.831" y="-308.9" font-family="Arial" font-size="14.00" fill="#666666">[boolean]</text>
<polygon fill="none" stroke="#000000" points="43.5,-267.5 43.5,-297.5 326.5,-297.5 326.5,-267.5 43.5,-267.5"/>
<text text-anchor="start" x="50.5" y="-278.9" font-family="Arial" font-size="14.00" fill="#000000">invitation_required    </text>
<text text-anchor="start" x="199.0596" y="-278.9" font-family="Arial" font-size="14.00" fill="#666666">[boolean]</text>
<polygon fill="none" stroke="#000000" points="43.5,-237.5 43.5,-267.5 326.5,-267.5 326.5,-237.5 43.5,-237.5"/>
<text text-anchor="start" x="50.5" y="-248.9" font-family="Arial" font-size="14.00" fill="#000000">created_by    </text>
<text text-anchor="start" x="153.9516" y="-248.9" font-family="Arial" font-size="14.00" fill="#666666">[integer]</text>
<polygon fill="none" stroke="#000000" points="43.5,-207.5 43.5,-237.5 326.5,-237.5 326.5,-207.5 43.5,-207.5"/>
<text text-anchor="start" x="50.5" y="-218.9" font-family="Arial" font-size="14.00" fill="#000000">created_at    </text>
<text text-anchor="start" x="150.8422" y="-218.9" font-family="Arial" font-size="14.00" fill="#666666">[timestamp with time zone]</text>
<polygon fill="none" stroke="#000000" points="43.5,-177.5 43.5,-207.5 326.5,-207.5 326.5,-177.5 43.5,-177.5"/>
<text text-anchor="start" x="50.5" y="-188.9" font-family="Arial" font-size="14.00" fill="#000000">updated_by    </text>
<text text-anchor="start" x="157.8562" y="-188.9" font-family="Arial" font-size="14.00" fill="#666666">[integer]</text>
<polygon fill="none" stroke="#000000" points="43.5,-147.5 43.5,-177.5 326.5,-177.5 326.5,-147.5 43.5,-147.5"/>
<text text-anchor="start" x="50.0344" y="-158.9" font-family="Arial" font-size="14.00" fill="#000000">updated_at    </text>
<text text-anchor="start" x="154.2812" y="-158.9" font-family="Arial" font-size="14.00" fill="#666666">[timestamp with time zone]</text>
<polygon fill="none" stroke="#000000" points="43.5,-117.5 43.5,-147.5 326.5,-147.5 326.5,-117.5 43.5,-117.5"/>
<text text-anchor="start" x="50.5" y="-128.9" font-family="Arial" font-size="14.00" fill="#000000">deleted_by    </text>
<text text-anchor="start" x="153.1802" y="-128.9" font-family="Arial" font-size="14.00" fill="#666666">[integer]</text>
<polygon fill="none" stroke="#000000" points="43.5,-87.5 43.5,-117.5 326.5,-117.5 326.5,-87.5 43.5,-87.5"/>
<text text-anchor="start" x="50.5" y="-98.9" font-family="Arial" font-size="14.00" fill="#000000">deleted_at    </text>
<text text-anchor="start" x="150.0708" y="-98.9" font-family="Arial" font-size="14.00" fill="#666666">[timestamp with time zone]</text>
</g>
<!-- main.resource_a&#45;&gt;auth.spaces -->
<g id="edge1" class="edge">
<title>main.resource_a:space_id&#45;&gt;auth.spaces:id</title>
<path fill="none" stroke="#000000" d="M426.3313,-962.8232C378.5517,-911.9131 380.6519,-462.5 326.5,-462.5"/>
<polygon fill="#000000" stroke="#000000" points="426.592,-962.9561 433.4552,-971.5086 431.046,-965.228 435.5,-967.5 435.5,-967.5 435.5,-967.5 431.046,-965.228 437.5448,-963.4914 426.592,-962.9561 426.592,-962.9561"/>
<text text-anchor="start" x="58.206" y="-977.5" font-family="Arial" font-size="10.00" fill="#000000">FOREIGN KEY (space_id) REFERENCES auth.spaces(id) ON DELETE CASCADE</text>
</g>
<!-- auth.users -->
<g id="node3" class="node">
<title>auth.users</title>
<polygon fill="#efefef" stroke="transparent" points="430.5,-522.5 430.5,-557.5 716.5,-557.5 716.5,-522.5 430.5,-522.5"/>
<polygon fill="none" stroke="#000000" points="430.5,-522.5 430.5,-557.5 716.5,-557.5 716.5,-522.5 430.5,-522.5"/>
<text text-anchor="start" x="467.7022" y="-535.3" font-family="Arial Bold" font-size="18.00" fill="#000000">auth.users</text>
<text text-anchor="start" x="551.7298" y="-535.3" font-family="Arial" font-size="14.00" fill="#000000">    </text>
<text text-anchor="start" x="585.9346" y="-535.3" font-family="Arial" font-size="14.00" fill="#666666">[BASE TABLE]</text>
<polygon fill="none" stroke="#000000" points="430.5,-492.5 430.5,-522.5 716.5,-522.5 716.5,-492.5 430.5,-492.5"/>
<text text-anchor="start" x="437.5" y="-503.9" font-family="Arial" font-size="14.00" fill="#000000">id    </text>
<text text-anchor="start" x="482.594" y="-503.9" font-family="Arial" font-size="14.00" fill="#666666">[integer]</text>
<polygon fill="none" stroke="#000000" points="430.5,-462.5 430.5,-492.5 716.5,-492.5 716.5,-462.5 430.5,-462.5"/>
<text text-anchor="start" x="437.5" y="-473.9" font-family="Arial" font-size="14.00" fill="#000000">username    </text>
<text text-anchor="start" x="533.939" y="-473.9" font-family="Arial" font-size="14.00" fill="#666666">[varchar(100)]</text>
<polygon fill="none" stroke="#000000" points="430.5,-432.5 430.5,-462.5 716.5,-462.5 716.5,-432.5 430.5,-432.5"/>
<text text-anchor="start" x="437.5" y="-443.9" font-family="Arial" font-size="14.00" fill="#000000">first_name    </text>
<text text-anchor="start" x="537.0442" y="-443.9" font-family="Arial" font-size="14.00" fill="#666666">[varchar(150)]</text>
<polygon fill="none" stroke="#000000" points="430.5,-402.5 430.5,-432.5 716.5,-432.5 716.5,-402.5 430.5,-402.5"/>
<text text-anchor="start" x="437.5" y="-413.9" font-family="Arial" font-size="14.00" fill="#000000">last_name    </text>
<text text-anchor="start" x="536.2756" y="-413.9" font-family="Arial" font-size="14.00" fill="#666666">[varchar(150)]</text>
<polygon fill="none" stroke="#000000" points="430.5,-372.5 430.5,-402.5 716.5,-402.5 716.5,-372.5 430.5,-372.5"/>
<text text-anchor="start" x="437.5" y="-383.9" font-family="Arial" font-size="14.00" fill="#000000">email    </text>
<text text-anchor="start" x="505.1438" y="-383.9" font-family="Arial" font-size="14.00" fill="#666666">[varchar(360)]</text>
<polygon fill="none" stroke="#000000" points="430.5,-342.5 430.5,-372.5 716.5,-372.5 716.5,-342.5 430.5,-342.5"/>
<text text-anchor="start" x="437.5" y="-353.9" font-family="Arial" font-size="14.00" fill="#000000">password    </text>
<text text-anchor="start" x="531.6024" y="-353.9" font-family="Arial" font-size="14.00" fill="#666666">[varchar(255)]</text>
<polygon fill="none" stroke="#000000" points="430.5,-312.5 430.5,-342.5 716.5,-342.5 716.5,-312.5 430.5,-312.5"/>
<text text-anchor="start" x="437.5" y="-323.9" font-family="Arial" font-size="14.00" fill="#000000">lang    </text>
<text text-anchor="start" x="498.1592" y="-323.9" font-family="Arial" font-size="14.00" fill="#666666">[auth.langs]</text>
<polygon fill="none" stroke="#000000" points="430.5,-282.5 430.5,-312.5 716.5,-312.5 716.5,-282.5 430.5,-282.5"/>
<text text-anchor="start" x="437.5" y="-293.9" font-family="Arial" font-size="14.00" fill="#000000">is_active    </text>
<text text-anchor="start" x="526.1564" y="-293.9" font-family="Arial" font-size="14.00" fill="#666666">[boolean]</text>
<polygon fill="none" stroke="#000000" points="430.5,-252.5 430.5,-282.5 716.5,-282.5 716.5,-252.5 430.5,-252.5"/>
<text text-anchor="start" x="437.5" y="-263.9" font-family="Arial" font-size="14.00" fill="#000000">is_superuser    </text>
<text text-anchor="start" x="551.8282" y="-263.9" font-family="Arial" font-size="14.00" fill="#666666">[boolean]</text>
<polygon fill="none" stroke="#000000" points="430.5,-222.5 430.5,-252.5 716.5,-252.5 716.5,-222.5 430.5,-222.5"/>
<text text-anchor="start" x="437.5" y="-233.9" font-family="Arial" font-size="14.00" fill="#000000">is_serviceuser    </text>
<text text-anchor="start" x="561.1522" y="-233.9" font-family="Arial" font-size="14.00" fill="#666666">[boolean]</text>
<polygon fill="none" stroke="#000000" points="430.5,-192.5 430.5,-222.5 716.5,-222.5 716.5,-192.5 430.5,-192.5"/>
<text text-anchor="start" x="437.5" y="-203.9" font-family="Arial" font-size="14.00" fill="#000000">last_login    </text>
<text text-anchor="start" x="530.8282" y="-203.9" font-family="Arial" font-size="14.00" fill="#666666">[timestamp with time zone]</text>
<polygon fill="none" stroke="#000000" points="430.5,-162.5 430.5,-192.5 716.5,-192.5 716.5,-162.5 430.5,-162.5"/>
<text text-anchor="start" x="437.5" y="-173.9" font-family="Arial" font-size="14.00" fill="#000000">last_seen    </text>
<text text-anchor="start" x="531.615" y="-173.9" font-family="Arial" font-size="14.00" fill="#666666">[timestamp with time zone]</text>
<polygon fill="none" stroke="#000000" points="430.5,-132.5 430.5,-162.5 716.5,-162.5 716.5,-132.5 430.5,-132.5"/>
<text text-anchor="start" x="437.3731" y="-143.9" font-family="Arial" font-size="14.00" fill="#000000">date_joined    </text>
<text text-anchor="start" x="543.9425" y="-143.9" font-family="Arial" font-size="14.00" fill="#666666">[timestamp with time zone]</text>
<polygon fill="none" stroke="#000000" points="430.5,-102.5 430.5,-132.5 716.5,-132.5 716.5,-102.5 430.5,-102.5"/>
<text text-anchor="start" x="437.5" y="-113.9" font-family="Arial" font-size="14.00" fill="#000000">created_at    </text>
<text text-anchor="start" x="537.8422" y="-113.9" font-family="Arial" font-size="14.00" fill="#666666">[timestamp with time zone]</text>
<polygon fill="none" stroke="#000000" points="430.5,-72.5 430.5,-102.5 716.5,-102.5 716.5,-72.5 430.5,-72.5"/>
<text text-anchor="start" x="437.5" y="-83.9" font-family="Arial" font-size="14.00" fill="#000000">created_by    </text>
<text text-anchor="start" x="540.9516" y="-83.9" font-family="Arial" font-size="14.00" fill="#666666">[integer]</text>
<polygon fill="none" stroke="#000000" points="430.5,-42.5 430.5,-72.5 716.5,-72.5 716.5,-42.5 430.5,-42.5"/>
<text text-anchor="start" x="437.5" y="-53.9" font-family="Arial" font-size="14.00" fill="#000000">updated_at    </text>
<text text-anchor="start" x="541.7468" y="-53.9" font-family="Arial" font-size="14.00" fill="#666666">[timestamp with time zone]</text>
</g>
<!-- main.resource_a&#45;&gt;auth.users -->
<g id="edge2" class="edge">
<title>main.resource_a:created_by&#45;&gt;auth.users:id</title>
<path fill="none" stroke="#000000" d="M720.6681,-816.7883C788.2232,-806.816 761.1053,-694.5282 710.5,-637 627.6299,-542.793 513.3701,-695.207 430.5,-601 403.0532,-569.7984 388.9444,-507.5 430.5,-507.5"/>
<polygon fill="#000000" stroke="#000000" points="720.4756,-816.8016 710.1857,-813.011 715.4878,-817.1508 710.5,-817.5 710.5,-817.5 710.5,-817.5 715.4878,-817.1508 710.8143,-821.989 720.4756,-816.8016 720.4756,-816.8016"/>
<text text-anchor="start" x="717.3725" y="-827.5" font-family="Arial" font-size="10.00" fill="#000000">FOREIGN KEY (created_by) REFERENCES auth.users(id) ON DELETE SET NULL</text>
</g>
<!-- main.resource_a&#45;&gt;auth.users -->
<g id="edge3" class="edge">
<title>main.resource_a:updated_by&#45;&gt;auth.users:id</title>
<path fill="none" stroke="#000000" d="M720.4948,-756.4129C761.4893,-746.7104 743.4545,-674.4628 710.5,-637 627.6299,-542.793 513.3701,-695.207 430.5,-601 403.0532,-569.7984 388.9444,-507.5 430.5,-507.5"/>
<polygon fill="#000000" stroke="#000000" points="720.4414,-756.4186 710.0134,-753.0264 715.4707,-756.9593 710.5,-757.5 710.5,-757.5 710.5,-757.5 715.4707,-756.9593 710.9866,-761.9736 720.4414,-756.4186 720.4414,-756.4186"/>
<text text-anchor="start" x="717.978" y="-767.5" font-family="Arial" font-size="10.00" fill="#000000">FOREIGN KEY (updated_by) REFERENCES auth.users(id) ON DELETE SET NULL</text>
</g>
<!-- main.resource_a&#45;&gt;auth.users -->
<g id="edge4" class="edge">
<title>main.resource_a:deleted_by&#45;&gt;auth.users:id</title>
<path fill="none" stroke="#000000" d="M572.7011,-672.314C562.8885,-614.6184 465.3868,-661.0381 430.5,-601 409.6218,-565.07 388.9444,-507.5 430.5,-507.5"/>
<polygon fill="#000000" stroke="#000000" points="572.718,-672.5306 569.0138,-682.8519 573.109,-677.5153 573.5,-682.5 573.5,-682.5 573.5,-682.5 573.109,-677.5153 577.9862,-682.1481 572.718,-672.5306 572.718,-672.5306"/>
<text text-anchor="start" x="580.648" y="-692.5" font-family="Arial" font-size="10.00" fill="#000000">FOREIGN KEY (deleted_by) REFERENCES auth.users(id) ON DELETE SET NULL</text>
</g>
</g>
</svg>
