<?xml version="1.0" encoding="UTF-8" standalone="no"?>
<!DOCTYPE svg PUBLIC "-//W3C//DTD SVG 1.1//EN"
 "http://www.w3.org/Graphics/SVG/1.1/DTD/svg11.dtd">
<!-- Generated by graphviz version 2.40.1 (20161225.0304)
 -->
<!-- Title: auth.users Pages: 1 -->
<svg width="2796pt" height="1162pt"
 viewBox="0.00 0.00 2796.00 1162.00" xmlns="http://www.w3.org/2000/svg" xmlns:xlink="http://www.w3.org/1999/xlink">
<g id="graph0" class="graph" transform="scale(1 1) rotate(0) translate(4 1158)">
<title>auth.users</title>
<polygon fill="#ffffff" stroke="transparent" points="-4,4 -4,-1158 2792,-1158 2792,4 -4,4"/>
<!-- auth.users -->
<g id="node1" class="node">
<title>auth.users</title>
<polygon fill="#efefef" stroke="transparent" points="1257,-525.5 1257,-560.5 1512,-560.5 1512,-525.5 1257,-525.5"/>
<polygon fill="none" stroke="#000000" points="1257,-525.5 1257,-560.5 1512,-560.5 1512,-525.5 1257,-525.5"/>
<text text-anchor="start" x="1278.7022" y="-538.3" font-family="Arial Bold" font-size="18.00" fill="#000000">auth.users</text>
<text text-anchor="start" x="1362.7298" y="-538.3" font-family="Arial" font-size="14.00" fill="#000000">    </text>
<text text-anchor="start" x="1396.9346" y="-538.3" font-family="Arial" font-size="14.00" fill="#666666">[BASE TABLE]</text>
<polygon fill="none" stroke="#000000" points="1257,-495.5 1257,-525.5 1512,-525.5 1512,-495.5 1257,-495.5"/>
<text text-anchor="start" x="1264" y="-506.9" font-family="Arial" font-size="14.00" fill="#000000">id </text>
<text text-anchor="start" x="1278.7798" y="-506.9" font-family="Arial" font-size="14.00" fill="#666666">[integer]</text>
<polygon fill="none" stroke="#000000" points="1257,-465.5 1257,-495.5 1512,-495.5 1512,-465.5 1257,-465.5"/>
<text text-anchor="start" x="1264" y="-476.9" font-family="Arial" font-size="14.00" fill="#000000">username </text>
<text text-anchor="start" x="1330.1248" y="-476.9" font-family="Arial" font-size="14.00" fill="#666666">[varchar(100)]</text>
<polygon fill="none" stroke="#000000" points="1257,-435.5 1257,-465.5 1512,-465.5 1512,-435.5 1257,-435.5"/>
<text text-anchor="start" x="1264" y="-446.9" font-family="Arial" font-size="14.00" fill="#000000">first_name </text>
<text text-anchor="start" x="1333.23" y="-446.9" font-family="Arial" font-size="14.00" fill="#666666">[varchar(150)]</text>
<polygon fill="none" stroke="#000000" points="1257,-405.5 1257,-435.5 1512,-435.5 1512,-405.5 1257,-405.5"/>
<text text-anchor="start" x="1264" y="-416.9" font-family="Arial" font-size="14.00" fill="#000000">last_name </text>
<text text-anchor="start" x="1332.4614" y="-416.9" font-family="Arial" font-size="14.00" fill="#666666">[varchar(150)]</text>
<polygon fill="none" stroke="#000000" points="1257,-375.5 1257,-405.5 1512,-405.5 1512,-375.5 1257,-375.5"/>
<text text-anchor="start" x="1264" y="-386.9" font-family="Arial" font-size="14.00" fill="#000000">email </text>
<text text-anchor="start" x="1301.3296" y="-386.9" font-family="Arial" font-size="14.00" fill="#666666">[varchar(360)]</text>
<polygon fill="none" stroke="#000000" points="1257,-345.5 1257,-375.5 1512,-375.5 1512,-345.5 1257,-345.5"/>
<text text-anchor="start" x="1264" y="-356.9" font-family="Arial" font-size="14.00" fill="#000000">password </text>
<text text-anchor="start" x="1327.7882" y="-356.9" font-family="Arial" font-size="14.00" fill="#666666">[varchar(255)]</text>
<polygon fill="none" stroke="#000000" points="1257,-315.5 1257,-345.5 1512,-345.5 1512,-315.5 1257,-315.5"/>
<text text-anchor="start" x="1264" y="-326.9" font-family="Arial" font-size="14.00" fill="#000000">lang </text>
<text text-anchor="start" x="1294.345" y="-326.9" font-family="Arial" font-size="14.00" fill="#666666">[auth.langs]</text>
<polygon fill="none" stroke="#000000" points="1257,-285.5 1257,-315.5 1512,-315.5 1512,-285.5 1257,-285.5"/>
<text text-anchor="start" x="1264" y="-296.9" font-family="Arial" font-size="14.00" fill="#000000">is_active </text>
<text text-anchor="start" x="1322.3422" y="-296.9" font-family="Arial" font-size="14.00" fill="#666666">[boolean]</text>
<polygon fill="none" stroke="#000000" points="1257,-255.5 1257,-285.5 1512,-285.5 1512,-255.5 1257,-255.5"/>
<text text-anchor="start" x="1264" y="-266.9" font-family="Arial" font-size="14.00" fill="#000000">is_superuser </text>
<text text-anchor="start" x="1348.014" y="-266.9" font-family="Arial" font-size="14.00" fill="#666666">[boolean]</text>
<polygon fill="none" stroke="#000000" points="1257,-225.5 1257,-255.5 1512,-255.5 1512,-225.5 1257,-225.5"/>
<text text-anchor="start" x="1264" y="-236.9" font-family="Arial" font-size="14.00" fill="#000000">is_serviceuser </text>
<text text-anchor="start" x="1357.338" y="-236.9" font-family="Arial" font-size="14.00" fill="#666666">[boolean]</text>
<polygon fill="none" stroke="#000000" points="1257,-195.5 1257,-225.5 1512,-225.5 1512,-195.5 1257,-195.5"/>
<text text-anchor="start" x="1264" y="-206.9" font-family="Arial" font-size="14.00" fill="#000000">last_login </text>
<text text-anchor="start" x="1327.014" y="-206.9" font-family="Arial" font-size="14.00" fill="#666666">[timestamp with time zone]</text>
<polygon fill="none" stroke="#000000" points="1257,-165.5 1257,-195.5 1512,-195.5 1512,-165.5 1257,-165.5"/>
<text text-anchor="start" x="1264" y="-176.9" font-family="Arial" font-size="14.00" fill="#000000">last_seen </text>
<text text-anchor="start" x="1327.8008" y="-176.9" font-family="Arial" font-size="14.00" fill="#666666">[timestamp with time zone]</text>
<polygon fill="none" stroke="#000000" points="1257,-135.5 1257,-165.5 1512,-165.5 1512,-135.5 1257,-135.5"/>
<text text-anchor="start" x="1263.5302" y="-146.9" font-family="Arial" font-size="14.00" fill="#000000">date_joined </text>
<text text-anchor="start" x="1339.7854" y="-146.9" font-family="Arial" font-size="14.00" fill="#666666">[timestamp with time zone]</text>
<polygon fill="none" stroke="#000000" points="1257,-105.5 1257,-135.5 1512,-135.5 1512,-105.5 1257,-105.5"/>
<text text-anchor="start" x="1264" y="-116.9" font-family="Arial" font-size="14.00" fill="#000000">created_at </text>
<text text-anchor="start" x="1334.028" y="-116.9" font-family="Arial" font-size="14.00" fill="#666666">[timestamp with time zone]</text>
<polygon fill="none" stroke="#000000" points="1257,-75.5 1257,-105.5 1512,-105.5 1512,-75.5 1257,-75.5"/>
<text text-anchor="start" x="1264" y="-86.9" font-family="Arial" font-size="14.00" fill="#000000">created_by </text>
<text text-anchor="start" x="1337.1374" y="-86.9" font-family="Arial" font-size="14.00" fill="#666666">[integer]</text>
<polygon fill="none" stroke="#000000" points="1257,-45.5 1257,-75.5 1512,-75.5 1512,-45.5 1257,-45.5"/>
<text text-anchor="start" x="1264" y="-56.9" font-family="Arial" font-size="14.00" fill="#000000">updated_at </text>
<text text-anchor="start" x="1337.9326" y="-56.9" font-family="Arial" font-size="14.00" fill="#666666">[timestamp with time zone]</text>
<polygon fill="none" stroke="#000000" stroke-width="3" points="1255,-44.5 1255,-562.5 1513,-562.5 1513,-44.5 1255,-44.5"/>
</g>
<!-- auth.users&#45;&gt;auth.users -->
<g id="edge1" class="edge">
<title>auth.users:created_by&#45;&gt;auth.users:id</title>
<path fill="none" stroke="#000000" d="M1386.0163,-115.8665C1393.9862,-337.7824 1393.6474,-904 1385,-904 1376.2329,-904 1376.006,-716.1154 1384.3194,-525.6795"/>
<polygon fill="#000000" stroke="#000000" points="1386.0048,-115.5559 1390.1274,-105.3945 1385.8177,-110.5594 1385.6305,-105.5629 1385.6305,-105.5629 1385.6305,-105.5629 1385.8177,-110.5594 1381.1337,-105.7313 1386.0048,-115.5559 1386.0048,-115.5559"/>
<text text-anchor="start" x="1392.503" y="-115.5629" font-family="Arial" font-size="10.00" fill="#000000">FOREIGN KEY (created_by) REFERENCES auth.users(id) ON DELETE SET NULL</text>
</g>
<!-- auth.sessions -->
<g id="node2" class="node">
<title>auth.sessions</title>
<polygon fill="#efefef" stroke="transparent" points="111,-940.5 111,-975.5 370,-975.5 370,-940.5 111,-940.5"/>
<polygon fill="none" stroke="#000000" points="111,-940.5 111,-975.5 370,-975.5 370,-940.5 111,-940.5"/>
<text text-anchor="start" x="121.6981" y="-953.3" font-family="Arial Bold" font-size="18.00" fill="#000000">auth.sessions</text>
<text text-anchor="start" x="231.7339" y="-953.3" font-family="Arial" font-size="14.00" fill="#000000">    </text>
<text text-anchor="start" x="265.9387" y="-953.3" font-family="Arial" font-size="14.00" fill="#666666">[BASE TABLE]</text>
<polygon fill="none" stroke="#000000" points="111,-910.5 111,-940.5 370,-940.5 370,-910.5 111,-910.5"/>
<text text-anchor="start" x="118" y="-921.9" font-family="Arial" font-size="14.00" fill="#000000">id    </text>
<text text-anchor="start" x="163.094" y="-921.9" font-family="Arial" font-size="14.00" fill="#666666">[uuid]</text>
<polygon fill="none" stroke="#000000" points="111,-880.5 111,-910.5 370,-910.5 370,-880.5 111,-880.5"/>
<text text-anchor="start" x="118" y="-891.9" font-family="Arial" font-size="14.00" fill="#000000">user_id    </text>
<text text-anchor="start" x="198.1024" y="-891.9" font-family="Arial" font-size="14.00" fill="#666666">[integer]</text>
<polygon fill="none" stroke="#000000" points="111,-850.5 111,-880.5 370,-880.5 370,-850.5 111,-850.5"/>
<text text-anchor="start" x="118" y="-861.9" font-family="Arial" font-size="14.00" fill="#000000">impersonate_user_id    </text>
<text text-anchor="start" x="282.899" y="-861.9" font-family="Arial" font-size="14.00" fill="#666666">[integer]</text>
<polygon fill="none" stroke="#000000" points="111,-820.5 111,-850.5 370,-850.5 370,-820.5 111,-820.5"/>
<text text-anchor="start" x="117.9979" y="-831.9" font-family="Arial" font-size="14.00" fill="#000000">expires    </text>
<text text-anchor="start" x="197.3177" y="-831.9" font-family="Arial" font-size="14.00" fill="#666666">[timestamp with time zone]</text>
</g>
<!-- auth.sessions&#45;&gt;auth.users -->
<g id="edge2" class="edge">
<title>auth.sessions:user_id&#45;&gt;auth.users:id</title>
<path fill="none" stroke="#000000" d="M380.2731,-894.9691C475.3075,-884.4301 341.0211,-719.6797 421,-643 556.7754,-512.8255 1068.9033,-510.5 1257,-510.5"/>
<polygon fill="#000000" stroke="#000000" points="379.9867,-894.9838 369.7677,-891.006 374.9933,-895.2419 370,-895.5 370,-895.5 370,-895.5 374.9933,-895.2419 370.2323,-899.994 379.9867,-894.9838 379.9867,-894.9838"/>
<text text-anchor="start" x="6.936" y="-905.5" font-family="Arial" font-size="10.00" fill="#000000">FOREIGN KEY (user_id) REFERENCES auth.users(id) ON DELETE CASCADE</text>
</g>
<!-- auth.spaces -->
<g id="node3" class="node">
<title>auth.spaces</title>
<polygon fill="#efefef" stroke="transparent" points="474,-1075.5 474,-1110.5 757,-1110.5 757,-1075.5 474,-1075.5"/>
<polygon fill="none" stroke="#000000" points="474,-1075.5 474,-1110.5 757,-1110.5 757,-1075.5 474,-1075.5"/>
<text text-anchor="start" x="503.1952" y="-1088.3" font-family="Arial Bold" font-size="18.00" fill="#000000">auth.spaces</text>
<text text-anchor="start" x="600.2368" y="-1088.3" font-family="Arial" font-size="14.00" fill="#000000">    </text>
<text text-anchor="start" x="634.4416" y="-1088.3" font-family="Arial" font-size="14.00" fill="#666666">[BASE TABLE]</text>
<polygon fill="none" stroke="#000000" points="474,-1045.5 474,-1075.5 757,-1075.5 757,-1045.5 474,-1045.5"/>
<text text-anchor="start" x="481" y="-1056.9" font-family="Arial" font-size="14.00" fill="#000000">id    </text>
<text text-anchor="start" x="526.094" y="-1056.9" font-family="Arial" font-size="14.00" fill="#666666">[integer]</text>
<polygon fill="none" stroke="#000000" points="474,-1015.5 474,-1045.5 757,-1045.5 757,-1015.5 474,-1015.5"/>
<text text-anchor="start" x="481" y="-1026.9" font-family="Arial" font-size="14.00" fill="#000000">parent_space_id    </text>
<text text-anchor="start" x="618.6886" y="-1026.9" font-family="Arial" font-size="14.00" fill="#666666">[integer]</text>
<polygon fill="none" stroke="#000000" points="474,-985.5 474,-1015.5 757,-1015.5 757,-985.5 474,-985.5"/>
<text text-anchor="start" x="481" y="-996.9" font-family="Arial" font-size="14.00" fill="#000000">slug    </text>
<text text-anchor="start" x="540.8766" y="-996.9" font-family="Arial" font-size="14.00" fill="#666666">[varchar(100)]</text>
<polygon fill="none" stroke="#000000" points="474,-955.5 474,-985.5 757,-985.5 757,-955.5 474,-955.5"/>
<text text-anchor="start" x="481" y="-966.9" font-family="Arial" font-size="14.00" fill="#000000">title    </text>
<text text-anchor="start" x="536.9818" y="-966.9" font-family="Arial" font-size="14.00" fill="#666666">[varchar(100)]</text>
<polygon fill="none" stroke="#000000" points="474,-925.5 474,-955.5 757,-955.5 757,-925.5 474,-925.5"/>
<text text-anchor="start" x="481" y="-936.9" font-family="Arial" font-size="14.00" fill="#000000">description    </text>
<text text-anchor="start" x="582.8822" y="-936.9" font-family="Arial" font-size="14.00" fill="#666666">[text]</text>
<polygon fill="none" stroke="#000000" points="474,-895.5 474,-925.5 757,-925.5 757,-895.5 474,-895.5"/>
<text text-anchor="start" x="481" y="-906.9" font-family="Arial" font-size="14.00" fill="#000000">is_publicly_browsable    </text>
<text text-anchor="start" x="651.331" y="-906.9" font-family="Arial" font-size="14.00" fill="#666666">[boolean]</text>
<polygon fill="none" stroke="#000000" points="474,-865.5 474,-895.5 757,-895.5 757,-865.5 474,-865.5"/>
<text text-anchor="start" x="481" y="-876.9" font-family="Arial" font-size="14.00" fill="#000000">invitation_required    </text>
<text text-anchor="start" x="629.5596" y="-876.9" font-family="Arial" font-size="14.00" fill="#666666">[boolean]</text>
<polygon fill="none" stroke="#000000" points="474,-835.5 474,-865.5 757,-865.5 757,-835.5 474,-835.5"/>
<text text-anchor="start" x="481" y="-846.9" font-family="Arial" font-size="14.00" fill="#000000">created_by    </text>
<text text-anchor="start" x="584.4516" y="-846.9" font-family="Arial" font-size="14.00" fill="#666666">[integer]</text>
<polygon fill="none" stroke="#000000" points="474,-805.5 474,-835.5 757,-835.5 757,-805.5 474,-805.5"/>
<text text-anchor="start" x="481" y="-816.9" font-family="Arial" font-size="14.00" fill="#000000">created_at    </text>
<text text-anchor="start" x="581.3422" y="-816.9" font-family="Arial" font-size="14.00" fill="#666666">[timestamp with time zone]</text>
<polygon fill="none" stroke="#000000" points="474,-775.5 474,-805.5 757,-805.5 757,-775.5 474,-775.5"/>
<text text-anchor="start" x="481" y="-786.9" font-family="Arial" font-size="14.00" fill="#000000">updated_by    </text>
<text text-anchor="start" x="588.3562" y="-786.9" font-family="Arial" font-size="14.00" fill="#666666">[integer]</text>
<polygon fill="none" stroke="#000000" points="474,-745.5 474,-775.5 757,-775.5 757,-745.5 474,-745.5"/>
<text text-anchor="start" x="480.5344" y="-756.9" font-family="Arial" font-size="14.00" fill="#000000">updated_at    </text>
<text text-anchor="start" x="584.7812" y="-756.9" font-family="Arial" font-size="14.00" fill="#666666">[timestamp with time zone]</text>
<polygon fill="none" stroke="#000000" points="474,-715.5 474,-745.5 757,-745.5 757,-715.5 474,-715.5"/>
<text text-anchor="start" x="481" y="-726.9" font-family="Arial" font-size="14.00" fill="#000000">deleted_by    </text>
<text text-anchor="start" x="583.6802" y="-726.9" font-family="Arial" font-size="14.00" fill="#666666">[integer]</text>
<polygon fill="none" stroke="#000000" points="474,-685.5 474,-715.5 757,-715.5 757,-685.5 474,-685.5"/>
<text text-anchor="start" x="481" y="-696.9" font-family="Arial" font-size="14.00" fill="#000000">deleted_at    </text>
<text text-anchor="start" x="580.5708" y="-696.9" font-family="Arial" font-size="14.00" fill="#666666">[timestamp with time zone]</text>
</g>
<!-- auth.spaces&#45;&gt;auth.users -->
<g id="edge3" class="edge">
<title>auth.spaces:created_by&#45;&gt;auth.users:id</title>
<path fill="none" stroke="#000000" d="M767.2153,-849.877C843.6749,-839.7615 744.9708,-708.994 808,-643 879.8521,-567.768 1152.9684,-510.5 1257,-510.5"/>
<polygon fill="#000000" stroke="#000000" points="766.9815,-849.8911 756.726,-846.0083 761.9907,-850.1956 757,-850.5 757,-850.5 757,-850.5 761.9907,-850.1956 757.274,-854.9917 766.9815,-849.8911 766.9815,-849.8911"/>
<text text-anchor="start" x="763.8725" y="-860.5" font-family="Arial" font-size="10.00" fill="#000000">FOREIGN KEY (created_by) REFERENCES auth.users(id) ON DELETE SET NULL</text>
</g>
<!-- auth.spaces&#45;&gt;auth.users -->
<g id="edge4" class="edge">
<title>auth.spaces:deleted_by&#45;&gt;auth.users:id</title>
<path fill="none" stroke="#000000" d="M767.0438,-729.2349C797.4326,-720.4709 775.6233,-668.3889 808,-643 971.7264,-514.61 1048.9367,-510.5 1257,-510.5"/>
<polygon fill="#000000" stroke="#000000" points="766.9216,-729.2503 756.4376,-726.0353 761.9608,-729.8751 757,-730.5 757,-730.5 757,-730.5 761.9608,-729.8751 757.5624,-734.9647 766.9216,-729.2503 766.9216,-729.2503"/>
<text text-anchor="start" x="764.148" y="-740.5" font-family="Arial" font-size="10.00" fill="#000000">FOREIGN KEY (deleted_by) REFERENCES auth.users(id) ON DELETE SET NULL</text>
</g>
<!-- auth.spaces&#45;&gt;auth.users -->
<g id="edge5" class="edge">
<title>auth.spaces:updated_by&#45;&gt;auth.users:id</title>
<path fill="none" stroke="#000000" d="M767.1848,-789.6312C819.2237,-779.7617 760.5821,-688.2881 808,-643 883.2316,-571.1475 1152.9684,-510.5 1257,-510.5"/>
<polygon fill="#000000" stroke="#000000" points="766.9638,-789.6499 756.6175,-786.0163 761.9819,-790.075 757,-790.5 757,-790.5 757,-790.5 761.9819,-790.075 757.3825,-794.9837 766.9638,-789.6499 766.9638,-789.6499"/>
<text text-anchor="start" x="764.478" y="-800.5" font-family="Arial" font-size="10.00" fill="#000000">FOREIGN KEY (updated_by) REFERENCES auth.users(id) ON DELETE SET NULL</text>
</g>
<!-- auth.space_users -->
<g id="node4" class="node">
<title>auth.space_users</title>
<polygon fill="#efefef" stroke="transparent" points="861,-955.5 861,-990.5 1144,-990.5 1144,-955.5 861,-955.5"/>
<polygon fill="none" stroke="#000000" points="861,-955.5 861,-990.5 1144,-990.5 1144,-955.5 861,-955.5"/>
<text text-anchor="start" x="867.6898" y="-968.3" font-family="Arial Bold" font-size="18.00" fill="#000000">auth.space_users</text>
<text text-anchor="start" x="1009.7422" y="-968.3" font-family="Arial" font-size="14.00" fill="#000000">    </text>
<text text-anchor="start" x="1043.947" y="-968.3" font-family="Arial" font-size="14.00" fill="#666666">[BASE TABLE]</text>
<polygon fill="none" stroke="#000000" points="861,-925.5 861,-955.5 1144,-955.5 1144,-925.5 861,-925.5"/>
<text text-anchor="start" x="868" y="-936.9" font-family="Arial" font-size="14.00" fill="#000000">user_id    </text>
<text text-anchor="start" x="948.1024" y="-936.9" font-family="Arial" font-size="14.00" fill="#666666">[integer]</text>
<polygon fill="none" stroke="#000000" points="861,-895.5 861,-925.5 1144,-925.5 1144,-895.5 861,-895.5"/>
<text text-anchor="start" x="868" y="-906.9" font-family="Arial" font-size="14.00" fill="#000000">space_id    </text>
<text text-anchor="start" x="958.2244" y="-906.9" font-family="Arial" font-size="14.00" fill="#666666">[integer]</text>
<polygon fill="none" stroke="#000000" points="861,-865.5 861,-895.5 1144,-895.5 1144,-865.5 861,-865.5"/>
<text text-anchor="start" x="868" y="-876.9" font-family="Arial" font-size="14.00" fill="#000000">role    </text>
<text text-anchor="start" x="925.5372" y="-876.9" font-family="Arial" font-size="14.00" fill="#666666">[auth.roles]</text>
<polygon fill="none" stroke="#000000" points="861,-835.5 861,-865.5 1144,-865.5 1144,-835.5 861,-835.5"/>
<text text-anchor="start" x="868" y="-846.9" font-family="Arial" font-size="14.00" fill="#000000">created_by    </text>
<text text-anchor="start" x="971.4516" y="-846.9" font-family="Arial" font-size="14.00" fill="#666666">[integer]</text>
<polygon fill="none" stroke="#000000" points="861,-805.5 861,-835.5 1144,-835.5 1144,-805.5 861,-805.5"/>
<text text-anchor="start" x="868" y="-816.9" font-family="Arial" font-size="14.00" fill="#000000">created_at    </text>
<text text-anchor="start" x="968.3422" y="-816.9" font-family="Arial" font-size="14.00" fill="#666666">[timestamp with time zone]</text>
</g>
<!-- auth.space_users&#45;&gt;auth.users -->
<g id="edge6" class="edge">
<title>auth.space_users:created_by&#45;&gt;auth.users:id</title>
<path fill="none" stroke="#000000" d="M1154.3648,-849.9688C1233.226,-841.3286 1164.6243,-729.0535 1195,-643 1216.6414,-581.6905 1191.983,-510.5 1257,-510.5"/>
<polygon fill="#000000" stroke="#000000" points="1153.9869,-849.9881 1143.7696,-846.0059 1148.9934,-850.244 1144,-850.5 1144,-850.5 1144,-850.5 1148.9934,-850.244 1144.2304,-854.9941 1153.9869,-849.9881 1153.9869,-849.9881"/>
<text text-anchor="start" x="764.8725" y="-834.5" font-family="Arial" font-size="10.00" fill="#000000">FOREIGN KEY (created_by) REFERENCES auth.users(id) ON DELETE SET NULL</text>
</g>
<!-- auth.space_users&#45;&gt;auth.users -->
<g id="edge7" class="edge">
<title>auth.space_users:user_id&#45;&gt;auth.users:id</title>
<path fill="none" stroke="#000000" d="M1154.1046,-938.471C1207.2912,-915.4684 1176.0367,-703.5052 1195,-643 1214.4447,-580.9588 1191.983,-510.5 1257,-510.5"/>
<polygon fill="#000000" stroke="#000000" points="1153.8043,-938.5312 1143.114,-936.0881 1148.9021,-939.5156 1144,-940.5 1144,-940.5 1144,-940.5 1148.9021,-939.5156 1144.886,-944.9119 1153.8043,-938.5312 1153.8043,-938.5312"/>
<text text-anchor="start" x="1151.217" y="-950.5" font-family="Arial" font-size="10.00" fill="#000000">FOREIGN KEY (user_id) REFERENCES auth.users(id)</text>
</g>
<!-- auth.invitations -->
<g id="node5" class="node">
<title>auth.invitations</title>
<polygon fill="#efefef" stroke="transparent" points="1248,-985.5 1248,-1020.5 1521,-1020.5 1521,-985.5 1248,-985.5"/>
<polygon fill="none" stroke="#000000" points="1248,-985.5 1248,-1020.5 1521,-1020.5 1521,-985.5 1248,-985.5"/>
<text text-anchor="start" x="1260.6986" y="-998.3" font-family="Arial Bold" font-size="18.00" fill="#000000">auth.invitations</text>
<text text-anchor="start" x="1380.7334" y="-998.3" font-family="Arial" font-size="14.00" fill="#000000">    </text>
<text text-anchor="start" x="1414.9382" y="-998.3" font-family="Arial" font-size="14.00" fill="#666666">[BASE TABLE]</text>
<polygon fill="none" stroke="#000000" points="1248,-955.5 1248,-985.5 1521,-985.5 1521,-955.5 1248,-955.5"/>
<text text-anchor="start" x="1255" y="-966.9" font-family="Arial" font-size="14.00" fill="#000000">id    </text>
<text text-anchor="start" x="1300.094" y="-966.9" font-family="Arial" font-size="14.00" fill="#666666">[integer]</text>
<polygon fill="none" stroke="#000000" points="1248,-925.5 1248,-955.5 1521,-955.5 1521,-925.5 1248,-925.5"/>
<text text-anchor="start" x="1255" y="-936.9" font-family="Arial" font-size="14.00" fill="#000000">invited_by    </text>
<text text-anchor="start" x="1352.2216" y="-936.9" font-family="Arial" font-size="14.00" fill="#666666">[integer]</text>
<polygon fill="none" stroke="#000000" points="1248,-895.5 1248,-925.5 1521,-925.5 1521,-895.5 1248,-895.5"/>
<text text-anchor="start" x="1254.6017" y="-906.9" font-family="Arial" font-size="14.00" fill="#000000">invited_at    </text>
<text text-anchor="start" x="1348.7139" y="-906.9" font-family="Arial" font-size="14.00" fill="#666666">[timestamp with time zone]</text>
<polygon fill="none" stroke="#000000" points="1248,-865.5 1248,-895.5 1521,-895.5 1521,-865.5 1248,-865.5"/>
<text text-anchor="start" x="1255" y="-876.9" font-family="Arial" font-size="14.00" fill="#000000">email    </text>
<text text-anchor="start" x="1322.6438" y="-876.9" font-family="Arial" font-size="14.00" fill="#666666">[varchar(360)]</text>
<polygon fill="none" stroke="#000000" points="1248,-835.5 1248,-865.5 1521,-865.5 1521,-835.5 1248,-835.5"/>
<text text-anchor="start" x="1255" y="-846.9" font-family="Arial" font-size="14.00" fill="#000000">token    </text>
<text text-anchor="start" x="1323.4432" y="-846.9" font-family="Arial" font-size="14.00" fill="#666666">[text]</text>
<polygon fill="none" stroke="#000000" points="1248,-805.5 1248,-835.5 1521,-835.5 1521,-805.5 1248,-805.5"/>
<text text-anchor="start" x="1255" y="-816.9" font-family="Arial" font-size="14.00" fill="#000000">expires    </text>
<text text-anchor="start" x="1334.3198" y="-816.9" font-family="Arial" font-size="14.00" fill="#666666">[timestamp with time zone]</text>
<polygon fill="none" stroke="#000000" points="1248,-775.5 1248,-805.5 1521,-805.5 1521,-775.5 1248,-775.5"/>
<text text-anchor="start" x="1255" y="-786.9" font-family="Arial" font-size="14.00" fill="#000000">user_id    </text>
<text text-anchor="start" x="1335.1024" y="-786.9" font-family="Arial" font-size="14.00" fill="#666666">[integer]</text>
</g>
<!-- auth.invitations&#45;&gt;auth.users -->
<g id="edge8" class="edge">
<title>auth.invitations:invited_by&#45;&gt;auth.users:id</title>
<path fill="none" stroke="#000000" d="M1239.2257,-935.0632C1201.5781,-885.2868 1212.3852,-510.5 1257,-510.5"/>
<polygon fill="#000000" stroke="#000000" points="1239.4995,-935.2329 1245.6298,-944.3252 1243.7498,-937.8664 1248,-940.5 1248,-940.5 1248,-940.5 1243.7498,-937.8664 1250.3702,-936.6748 1239.4995,-935.2329 1239.4995,-935.2329"/>
<text text-anchor="start" x="968.322" y="-924.5" font-family="Arial" font-size="10.00" fill="#000000">FOREIGN KEY (invited_by) REFERENCES auth.users(id) ON DELETE CASCADE</text>
</g>
<!-- auth.invitations&#45;&gt;auth.users -->
<g id="edge9" class="edge">
<title>auth.invitations:user_id&#45;&gt;auth.users:id</title>
<path fill="none" stroke="#000000" d="M1384.6037,-765.4683C1377.8212,-682.4 1285.9002,-692.8208 1257,-607 1243.3124,-566.3539 1214.1111,-510.5 1257,-510.5"/>
<polygon fill="#000000" stroke="#000000" points="1384.6051,-765.5078 1380.5035,-775.6777 1384.8026,-770.5039 1385,-775.5 1385,-775.5 1385,-775.5 1384.8026,-770.5039 1389.4965,-775.3223 1384.6051,-765.5078 1384.6051,-765.5078"/>
<text text-anchor="start" x="1391.936" y="-785.5" font-family="Arial" font-size="10.00" fill="#000000">FOREIGN KEY (user_id) REFERENCES auth.users(id) ON DELETE CASCADE</text>
</g>
<!-- auth.audit_events -->
<g id="node6" class="node">
<title>auth.audit_events</title>
<polygon fill="#efefef" stroke="transparent" points="1625,-1030.5 1625,-1065.5 1908,-1065.5 1908,-1030.5 1625,-1030.5"/>
<polygon fill="none" stroke="#000000" points="1625,-1030.5 1625,-1065.5 1908,-1065.5 1908,-1030.5 1625,-1030.5"/>
<text text-anchor="start" x="1631.6835" y="-1043.3" font-family="Arial Bold" font-size="18.00" fill="#000000">auth.audit_events</text>
<text text-anchor="start" x="1773.7485" y="-1043.3" font-family="Arial" font-size="14.00" fill="#000000">    </text>
<text text-anchor="start" x="1807.9533" y="-1043.3" font-family="Arial" font-size="14.00" fill="#666666">[BASE TABLE]</text>
<polygon fill="none" stroke="#000000" points="1625,-1000.5 1625,-1030.5 1908,-1030.5 1908,-1000.5 1625,-1000.5"/>
<text text-anchor="start" x="1632" y="-1011.9" font-family="Arial" font-size="14.00" fill="#000000">id    </text>
<text text-anchor="start" x="1677.094" y="-1011.9" font-family="Arial" font-size="14.00" fill="#666666">[integer]</text>
<polygon fill="none" stroke="#000000" points="1625,-970.5 1625,-1000.5 1908,-1000.5 1908,-970.5 1625,-970.5"/>
<text text-anchor="start" x="1632" y="-981.9" font-family="Arial" font-size="14.00" fill="#000000">author_id    </text>
<text text-anchor="start" x="1724.5582" y="-981.9" font-family="Arial" font-size="14.00" fill="#666666">[integer]</text>
<polygon fill="none" stroke="#000000" points="1625,-940.5 1625,-970.5 1908,-970.5 1908,-940.5 1625,-940.5"/>
<text text-anchor="start" x="1632" y="-951.9" font-family="Arial" font-size="14.00" fill="#000000">created_at    </text>
<text text-anchor="start" x="1732.3422" y="-951.9" font-family="Arial" font-size="14.00" fill="#666666">[timestamp with time zone]</text>
<polygon fill="none" stroke="#000000" points="1625,-910.5 1625,-940.5 1908,-940.5 1908,-910.5 1625,-910.5"/>
<text text-anchor="start" x="1632" y="-921.9" font-family="Arial" font-size="14.00" fill="#000000">entity_type    </text>
<text text-anchor="start" x="1733.8962" y="-921.9" font-family="Arial" font-size="14.00" fill="#666666">[auth.entity_types]</text>
<polygon fill="none" stroke="#000000" points="1625,-880.5 1625,-910.5 1908,-910.5 1908,-880.5 1625,-880.5"/>
<text text-anchor="start" x="1632" y="-891.9" font-family="Arial" font-size="14.00" fill="#000000">entity_id    </text>
<text text-anchor="start" x="1718.3296" y="-891.9" font-family="Arial" font-size="14.00" fill="#666666">[integer]</text>
<polygon fill="none" stroke="#000000" points="1625,-850.5 1625,-880.5 1908,-880.5 1908,-850.5 1625,-850.5"/>
<text text-anchor="start" x="1632" y="-861.9" font-family="Arial" font-size="14.00" fill="#000000">space_ids    </text>
<text text-anchor="start" x="1729.2244" y="-861.9" font-family="Arial" font-size="14.00" fill="#666666">[integer[]]</text>
<polygon fill="none" stroke="#000000" points="1625,-820.5 1625,-850.5 1908,-850.5 1908,-820.5 1625,-820.5"/>
<text text-anchor="start" x="1632" y="-831.9" font-family="Arial" font-size="14.00" fill="#000000">ipv4_address    </text>
<text text-anchor="start" x="1749.4502" y="-831.9" font-family="Arial" font-size="14.00" fill="#666666">[varchar]</text>
<polygon fill="none" stroke="#000000" points="1625,-790.5 1625,-820.5 1908,-820.5 1908,-790.5 1625,-790.5"/>
<text text-anchor="start" x="1632" y="-801.9" font-family="Arial" font-size="14.00" fill="#000000">ipv6_address    </text>
<text text-anchor="start" x="1749.4502" y="-801.9" font-family="Arial" font-size="14.00" fill="#666666">[varchar]</text>
<polygon fill="none" stroke="#000000" points="1625,-760.5 1625,-790.5 1908,-790.5 1908,-760.5 1625,-760.5"/>
<text text-anchor="start" x="1632" y="-771.9" font-family="Arial" font-size="14.00" fill="#000000">event_type    </text>
<text text-anchor="start" x="1734.6816" y="-771.9" font-family="Arial" font-size="14.00" fill="#666666">[auth.audit_event_types]</text>
<polygon fill="none" stroke="#000000" points="1625,-730.5 1625,-760.5 1908,-760.5 1908,-730.5 1625,-730.5"/>
<text text-anchor="start" x="1632" y="-741.9" font-family="Arial" font-size="14.00" fill="#000000">details    </text>
<text text-anchor="start" x="1706.6564" y="-741.9" font-family="Arial" font-size="14.00" fill="#666666">[jsonb]</text>
</g>
<!-- auth.audit_events&#45;&gt;auth.users -->
<g id="edge10" class="edge">
<title>auth.audit_events:author_id&#45;&gt;auth.users:id</title>
<path fill="none" stroke="#000000" d="M1614.9721,-983.7762C1552.278,-960.7327 1594.0563,-713.2886 1573,-643 1554.3958,-580.8969 1576.8299,-510.5 1512,-510.5"/>
<polygon fill="#000000" stroke="#000000" points="1615.1446,-983.8058 1624.2376,-989.935 1620.0723,-984.6529 1625,-985.5 1625,-985.5 1625,-985.5 1620.0723,-984.6529 1625.7624,-981.065 1615.1446,-983.8058 1615.1446,-983.8058"/>
<text text-anchor="start" x="1442.763" y="-969.5" font-family="Arial" font-size="10.00" fill="#000000">FOREIGN KEY (author_id) REFERENCES auth.users(id) ON DELETE SET NULL</text>
</g>
<!-- main.resource_a -->
<g id="node7" class="node">
<title>main.resource_a</title>
<polygon fill="#efefef" stroke="transparent" points="2012,-1045.5 2012,-1080.5 2295,-1080.5 2295,-1045.5 2012,-1045.5"/>
<polygon fill="none" stroke="#000000" points="2012,-1045.5 2012,-1080.5 2295,-1080.5 2295,-1045.5 2012,-1045.5"/>
<text text-anchor="start" x="2022.7047" y="-1058.3" font-family="Arial Bold" font-size="18.00" fill="#000000">main.resource_a</text>
<text text-anchor="start" x="2156.7273" y="-1058.3" font-family="Arial" font-size="14.00" fill="#000000">    </text>
<text text-anchor="start" x="2190.9321" y="-1058.3" font-family="Arial" font-size="14.00" fill="#666666">[BASE TABLE]</text>
<polygon fill="none" stroke="#000000" points="2012,-1015.5 2012,-1045.5 2295,-1045.5 2295,-1015.5 2012,-1015.5"/>
<text text-anchor="start" x="2019" y="-1026.9" font-family="Arial" font-size="14.00" fill="#000000">id    </text>
<text text-anchor="start" x="2064.094" y="-1026.9" font-family="Arial" font-size="14.00" fill="#666666">[integer]</text>
<polygon fill="none" stroke="#000000" points="2012,-985.5 2012,-1015.5 2295,-1015.5 2295,-985.5 2012,-985.5"/>
<text text-anchor="start" x="2019" y="-996.9" font-family="Arial" font-size="14.00" fill="#000000">space_id    </text>
<text text-anchor="start" x="2109.2244" y="-996.9" font-family="Arial" font-size="14.00" fill="#666666">[integer]</text>
<polygon fill="none" stroke="#000000" points="2012,-955.5 2012,-985.5 2295,-985.5 2295,-955.5 2012,-955.5"/>
<text text-anchor="start" x="2019" y="-966.9" font-family="Arial" font-size="14.00" fill="#000000">slug    </text>
<text text-anchor="start" x="2078.8766" y="-966.9" font-family="Arial" font-size="14.00" fill="#666666">[varchar(12)]</text>
<polygon fill="none" stroke="#000000" points="2012,-925.5 2012,-955.5 2295,-955.5 2295,-925.5 2012,-925.5"/>
<text text-anchor="start" x="2019" y="-936.9" font-family="Arial" font-size="14.00" fill="#000000">title    </text>
<text text-anchor="start" x="2074.9818" y="-936.9" font-family="Arial" font-size="14.00" fill="#666666">[varchar(100)]</text>
<polygon fill="none" stroke="#000000" points="2012,-895.5 2012,-925.5 2295,-925.5 2295,-895.5 2012,-895.5"/>
<text text-anchor="start" x="2019" y="-906.9" font-family="Arial" font-size="14.00" fill="#000000">content    </text>
<text text-anchor="start" x="2099.1164" y="-906.9" font-family="Arial" font-size="14.00" fill="#666666">[text]</text>
<polygon fill="none" stroke="#000000" points="2012,-865.5 2012,-895.5 2295,-895.5 2295,-865.5 2012,-865.5"/>
<text text-anchor="start" x="2019" y="-876.9" font-family="Arial" font-size="14.00" fill="#000000">created_at    </text>
<text text-anchor="start" x="2119.3422" y="-876.9" font-family="Arial" font-size="14.00" fill="#666666">[timestamp with time zone]</text>
<polygon fill="none" stroke="#000000" points="2012,-835.5 2012,-865.5 2295,-865.5 2295,-835.5 2012,-835.5"/>
<text text-anchor="start" x="2019" y="-846.9" font-family="Arial" font-size="14.00" fill="#000000">created_by    </text>
<text text-anchor="start" x="2122.4516" y="-846.9" font-family="Arial" font-size="14.00" fill="#666666">[integer]</text>
<polygon fill="none" stroke="#000000" points="2012,-805.5 2012,-835.5 2295,-835.5 2295,-805.5 2012,-805.5"/>
<text text-anchor="start" x="2018.5344" y="-816.9" font-family="Arial" font-size="14.00" fill="#000000">updated_at    </text>
<text text-anchor="start" x="2122.7812" y="-816.9" font-family="Arial" font-size="14.00" fill="#666666">[timestamp with time zone]</text>
<polygon fill="none" stroke="#000000" points="2012,-775.5 2012,-805.5 2295,-805.5 2295,-775.5 2012,-775.5"/>
<text text-anchor="start" x="2019" y="-786.9" font-family="Arial" font-size="14.00" fill="#000000">updated_by    </text>
<text text-anchor="start" x="2126.3562" y="-786.9" font-family="Arial" font-size="14.00" fill="#666666">[integer]</text>
<polygon fill="none" stroke="#000000" points="2012,-745.5 2012,-775.5 2295,-775.5 2295,-745.5 2012,-745.5"/>
<text text-anchor="start" x="2019" y="-756.9" font-family="Arial" font-size="14.00" fill="#000000">deleted_at    </text>
<text text-anchor="start" x="2118.5708" y="-756.9" font-family="Arial" font-size="14.00" fill="#666666">[timestamp with time zone]</text>
<polygon fill="none" stroke="#000000" points="2012,-715.5 2012,-745.5 2295,-745.5 2295,-715.5 2012,-715.5"/>
<text text-anchor="start" x="2019" y="-726.9" font-family="Arial" font-size="14.00" fill="#000000">deleted_by    </text>
<text text-anchor="start" x="2121.6802" y="-726.9" font-family="Arial" font-size="14.00" fill="#666666">[integer]</text>
</g>
<!-- main.resource_a&#45;&gt;auth.users -->
<g id="edge11" class="edge">
<title>main.resource_a:created_by&#45;&gt;auth.users:id</title>
<path fill="none" stroke="#000000" d="M2001.7696,-849.8767C1925.1653,-839.7576 2023.2301,-708.9442 1960,-643 1888.1475,-568.0633 1615.8185,-510.5 1512,-510.5"/>
<polygon fill="#000000" stroke="#000000" points="2002.0185,-849.8918 2011.7263,-854.9917 2007.0093,-850.1959 2012,-850.5 2012,-850.5 2012,-850.5 2007.0093,-850.1959 2012.2737,-846.0083 2002.0185,-849.8918 2002.0185,-849.8918"/>
<text text-anchor="start" x="2018.8725" y="-860.5" font-family="Arial" font-size="10.00" fill="#000000">FOREIGN KEY (created_by) REFERENCES auth.users(id) ON DELETE SET NULL</text>
</g>
<!-- main.resource_a&#45;&gt;auth.users -->
<g id="edge12" class="edge">
<title>main.resource_a:deleted_by&#45;&gt;auth.users:id</title>
<path fill="none" stroke="#000000" d="M2001.8926,-729.2349C1971.2596,-720.4707 1992.6391,-668.3877 1960,-643 1796.1053,-515.5179 1719.637,-510.5 1512,-510.5"/>
<polygon fill="#000000" stroke="#000000" points="2002.0774,-729.258 2011.4411,-734.9652 2007.0387,-729.879 2012,-730.5 2012,-730.5 2012,-730.5 2007.0387,-729.879 2012.5589,-726.0348 2002.0774,-729.258 2002.0774,-729.258"/>
<text text-anchor="start" x="2019.148" y="-740.5" font-family="Arial" font-size="10.00" fill="#000000">FOREIGN KEY (deleted_by) REFERENCES auth.users(id) ON DELETE SET NULL</text>
</g>
<!-- main.resource_a&#45;&gt;auth.users -->
<g id="edge13" class="edge">
<title>main.resource_a:updated_by&#45;&gt;auth.users:id</title>
<path fill="none" stroke="#000000" d="M2001.7871,-789.6309C1949.5635,-779.758 2007.6412,-688.2544 1960,-643 1884.7279,-571.499 1615.8185,-510.5 1512,-510.5"/>
<polygon fill="#000000" stroke="#000000" points="2002.036,-789.652 2011.6184,-794.9838 2007.018,-790.076 2012,-790.5 2012,-790.5 2012,-790.5 2007.018,-790.076 2012.3816,-786.0162 2002.036,-789.652 2002.036,-789.652"/>
<text text-anchor="start" x="2019.478" y="-800.5" font-family="Arial" font-size="10.00" fill="#000000">FOREIGN KEY (updated_by) REFERENCES auth.users(id) ON DELETE SET NULL</text>
</g>
<!-- main.resource_b -->
<g id="node8" class="node">
<title>main.resource_b</title>
<polygon fill="#efefef" stroke="transparent" points="2399,-1045.5 2399,-1080.5 2682,-1080.5 2682,-1045.5 2399,-1045.5"/>
<polygon fill="none" stroke="#000000" points="2399,-1045.5 2399,-1080.5 2682,-1080.5 2682,-1045.5 2399,-1045.5"/>
<text text-anchor="start" x="2409.7047" y="-1058.3" font-family="Arial Bold" font-size="18.00" fill="#000000">main.resource_b</text>
<text text-anchor="start" x="2543.7273" y="-1058.3" font-family="Arial" font-size="14.00" fill="#000000">    </text>
<text text-anchor="start" x="2577.9321" y="-1058.3" font-family="Arial" font-size="14.00" fill="#666666">[BASE TABLE]</text>
<polygon fill="none" stroke="#000000" points="2399,-1015.5 2399,-1045.5 2682,-1045.5 2682,-1015.5 2399,-1015.5"/>
<text text-anchor="start" x="2406" y="-1026.9" font-family="Arial" font-size="14.00" fill="#000000">id    </text>
<text text-anchor="start" x="2451.094" y="-1026.9" font-family="Arial" font-size="14.00" fill="#666666">[integer]</text>
<polygon fill="none" stroke="#000000" points="2399,-985.5 2399,-1015.5 2682,-1015.5 2682,-985.5 2399,-985.5"/>
<text text-anchor="start" x="2406" y="-996.9" font-family="Arial" font-size="14.00" fill="#000000">space_id    </text>
<text text-anchor="start" x="2496.2244" y="-996.9" font-family="Arial" font-size="14.00" fill="#666666">[integer]</text>
<polygon fill="none" stroke="#000000" points="2399,-955.5 2399,-985.5 2682,-985.5 2682,-955.5 2399,-955.5"/>
<text text-anchor="start" x="2406" y="-966.9" font-family="Arial" font-size="14.00" fill="#000000">slug    </text>
<text text-anchor="start" x="2465.8766" y="-966.9" font-family="Arial" font-size="14.00" fill="#666666">[varchar(12)]</text>
<polygon fill="none" stroke="#000000" points="2399,-925.5 2399,-955.5 2682,-955.5 2682,-925.5 2399,-925.5"/>
<text text-anchor="start" x="2406" y="-936.9" font-family="Arial" font-size="14.00" fill="#000000">title    </text>
<text text-anchor="start" x="2461.9818" y="-936.9" font-family="Arial" font-size="14.00" fill="#666666">[varchar(100)]</text>
<polygon fill="none" stroke="#000000" points="2399,-895.5 2399,-925.5 2682,-925.5 2682,-895.5 2399,-895.5"/>
<text text-anchor="start" x="2406" y="-906.9" font-family="Arial" font-size="14.00" fill="#000000">content    </text>
<text text-anchor="start" x="2486.1164" y="-906.9" font-family="Arial" font-size="14.00" fill="#666666">[text]</text>
<polygon fill="none" stroke="#000000" points="2399,-865.5 2399,-895.5 2682,-895.5 2682,-865.5 2399,-865.5"/>
<text text-anchor="start" x="2406" y="-876.9" font-family="Arial" font-size="14.00" fill="#000000">created_at    </text>
<text text-anchor="start" x="2506.3422" y="-876.9" font-family="Arial" font-size="14.00" fill="#666666">[timestamp with time zone]</text>
<polygon fill="none" stroke="#000000" points="2399,-835.5 2399,-865.5 2682,-865.5 2682,-835.5 2399,-835.5"/>
<text text-anchor="start" x="2406" y="-846.9" font-family="Arial" font-size="14.00" fill="#000000">created_by    </text>
<text text-anchor="start" x="2509.4516" y="-846.9" font-family="Arial" font-size="14.00" fill="#666666">[integer]</text>
<polygon fill="none" stroke="#000000" points="2399,-805.5 2399,-835.5 2682,-835.5 2682,-805.5 2399,-805.5"/>
<text text-anchor="start" x="2405.5344" y="-816.9" font-family="Arial" font-size="14.00" fill="#000000">updated_at    </text>
<text text-anchor="start" x="2509.7812" y="-816.9" font-family="Arial" font-size="14.00" fill="#666666">[timestamp with time zone]</text>
<polygon fill="none" stroke="#000000" points="2399,-775.5 2399,-805.5 2682,-805.5 2682,-775.5 2399,-775.5"/>
<text text-anchor="start" x="2406" y="-786.9" font-family="Arial" font-size="14.00" fill="#000000">updated_by    </text>
<text text-anchor="start" x="2513.3562" y="-786.9" font-family="Arial" font-size="14.00" fill="#666666">[integer]</text>
<polygon fill="none" stroke="#000000" points="2399,-745.5 2399,-775.5 2682,-775.5 2682,-745.5 2399,-745.5"/>
<text text-anchor="start" x="2406" y="-756.9" font-family="Arial" font-size="14.00" fill="#000000">deleted_at    </text>
<text text-anchor="start" x="2505.5708" y="-756.9" font-family="Arial" font-size="14.00" fill="#666666">[timestamp with time zone]</text>
<polygon fill="none" stroke="#000000" points="2399,-715.5 2399,-745.5 2682,-745.5 2682,-715.5 2399,-715.5"/>
<text text-anchor="start" x="2406" y="-726.9" font-family="Arial" font-size="14.00" fill="#000000">deleted_by    </text>
<text text-anchor="start" x="2508.6802" y="-726.9" font-family="Arial" font-size="14.00" fill="#666666">[integer]</text>
</g>
<!-- main.resource_b&#45;&gt;auth.users -->
<g id="edge14" class="edge">
<title>main.resource_b:created_by&#45;&gt;auth.users:id</title>
<path fill="none" stroke="#000000" d="M2388.7886,-849.8573C2312.49,-839.4253 2414.3858,-704.6914 2347,-643 2208.4248,-516.1349 1699.8772,-510.5 1512,-510.5"/>
<polygon fill="#000000" stroke="#000000" points="2389.0197,-849.8717 2398.7173,-854.9911 2394.0099,-850.1859 2399,-850.5 2399,-850.5 2399,-850.5 2394.0099,-850.1859 2399.2827,-846.0089 2389.0197,-849.8717 2389.0197,-849.8717"/>
<text text-anchor="start" x="2405.8725" y="-860.5" font-family="Arial" font-size="10.00" fill="#000000">FOREIGN KEY (created_by) REFERENCES auth.users(id) ON DELETE SET NULL</text>
</g>
<!-- main.resource_b&#45;&gt;auth.users -->
<g id="edge15" class="edge">
<title>main.resource_b:deleted_by&#45;&gt;auth.users:id</title>
<path fill="none" stroke="#000000" d="M2388.9276,-729.1867C2358.5316,-720.0965 2381.2214,-666.2107 2347,-643 2191.513,-537.5408 1699.8772,-510.5 1512,-510.5"/>
<polygon fill="#000000" stroke="#000000" points="2389.0839,-729.207 2398.4181,-734.9622 2394.042,-729.8535 2399,-730.5 2399,-730.5 2399,-730.5 2394.042,-729.8535 2399.5819,-726.0378 2389.0839,-729.207 2389.0839,-729.207"/>
<text text-anchor="start" x="2406.148" y="-740.5" font-family="Arial" font-size="10.00" fill="#000000">FOREIGN KEY (deleted_by) REFERENCES auth.users(id) ON DELETE SET NULL</text>
</g>
<!-- main.resource_b&#45;&gt;auth.users -->
<g id="edge16" class="edge">
<title>main.resource_b:updated_by&#45;&gt;auth.users:id</title>
<path fill="none" stroke="#000000" d="M2388.8126,-789.6022C2336.8744,-779.4086 2397.4841,-685.0595 2347,-643 2202.6539,-522.7418 1699.8772,-510.5 1512,-510.5"/>
<polygon fill="#000000" stroke="#000000" points="2389.0386,-789.622 2398.6049,-794.9826 2394.0193,-790.061 2399,-790.5 2399,-790.5 2399,-790.5 2394.0193,-790.061 2399.3951,-786.0174 2389.0386,-789.622 2389.0386,-789.622"/>
<text text-anchor="start" x="2406.478" y="-774.5" font-family="Arial" font-size="10.00" fill="#000000">FOREIGN KEY (updated_by) REFERENCES auth.users(id) ON DELETE SET NULL</text>
</g>
</g>
</svg>
