<?xml version="1.0" encoding="UTF-8" standalone="no"?>
<!DOCTYPE svg PUBLIC "-//W3C//DTD SVG 1.1//EN"
 "http://www.w3.org/Graphics/SVG/1.1/DTD/svg11.dtd">
<!-- Generated by graphviz version 2.40.1 (20161225.0304)
 -->
<!-- Title: auth.audit_events Pages: 1 -->
<svg width="716pt" height="1072pt"
 viewBox="0.00 0.00 715.50 1072.00" xmlns="http://www.w3.org/2000/svg" xmlns:xlink="http://www.w3.org/1999/xlink">
<g id="graph0" class="graph" transform="scale(1 1) rotate(0) translate(4 1068)">
<title>auth.audit_events</title>
<polygon fill="#ffffff" stroke="transparent" points="-4,4 -4,-1068 711.5,-1068 711.5,4 -4,4"/>
<!-- auth.audit_events -->
<g id="node1" class="node">
<title>auth.audit_events</title>
<polygon fill="#efefef" stroke="transparent" points="46.5,-982.5 46.5,-1017.5 329.5,-1017.5 329.5,-982.5 46.5,-982.5"/>
<polygon fill="none" stroke="#000000" points="46.5,-982.5 46.5,-1017.5 329.5,-1017.5 329.5,-982.5 46.5,-982.5"/>
<text text-anchor="start" x="53.1835" y="-995.3" font-family="Arial Bold" font-size="18.00" fill="#000000">auth.audit_events</text>
<text text-anchor="start" x="195.2485" y="-995.3" font-family="Arial" font-size="14.00" fill="#000000">    </text>
<text text-anchor="start" x="229.4533" y="-995.3" font-family="Arial" font-size="14.00" fill="#666666">[BASE TABLE]</text>
<polygon fill="none" stroke="#000000" points="46.5,-952.5 46.5,-982.5 329.5,-982.5 329.5,-952.5 46.5,-952.5"/>
<text text-anchor="start" x="53.5" y="-963.9" font-family="Arial" font-size="14.00" fill="#000000">id </text>
<text text-anchor="start" x="68.2798" y="-963.9" font-family="Arial" font-size="14.00" fill="#666666">[integer]</text>
<polygon fill="none" stroke="#000000" points="46.5,-922.5 46.5,-952.5 329.5,-952.5 329.5,-922.5 46.5,-922.5"/>
<text text-anchor="start" x="53.5" y="-933.9" font-family="Arial" font-size="14.00" fill="#000000">author_id </text>
<text text-anchor="start" x="115.744" y="-933.9" font-family="Arial" font-size="14.00" fill="#666666">[integer]</text>
<polygon fill="none" stroke="#000000" points="46.5,-892.5 46.5,-922.5 329.5,-922.5 329.5,-892.5 46.5,-892.5"/>
<text text-anchor="start" x="53.5" y="-903.9" font-family="Arial" font-size="14.00" fill="#000000">created_at </text>
<text text-anchor="start" x="123.528" y="-903.9" font-family="Arial" font-size="14.00" fill="#666666">[timestamp with time zone]</text>
<polygon fill="none" stroke="#000000" points="46.5,-862.5 46.5,-892.5 329.5,-892.5 329.5,-862.5 46.5,-862.5"/>
<text text-anchor="start" x="53.5" y="-873.9" font-family="Arial" font-size="14.00" fill="#000000">entity_type </text>
<text text-anchor="start" x="125.082" y="-873.9" font-family="Arial" font-size="14.00" fill="#666666">[auth.entity_types]</text>
<polygon fill="none" stroke="#000000" points="46.5,-832.5 46.5,-862.5 329.5,-862.5 329.5,-832.5 46.5,-832.5"/>
<text text-anchor="start" x="53.5" y="-843.9" font-family="Arial" font-size="14.00" fill="#000000">entity_id </text>
<text text-anchor="start" x="109.5154" y="-843.9" font-family="Arial" font-size="14.00" fill="#666666">[integer]</text>
<polygon fill="none" stroke="#000000" points="46.5,-802.5 46.5,-832.5 329.5,-832.5 329.5,-802.5 46.5,-802.5"/>
<text text-anchor="start" x="53.5" y="-813.9" font-family="Arial" font-size="14.00" fill="#000000">space_ids </text>
<text text-anchor="start" x="120.4102" y="-813.9" font-family="Arial" font-size="14.00" fill="#666666">[integer[]]</text>
<polygon fill="none" stroke="#000000" points="46.5,-772.5 46.5,-802.5 329.5,-802.5 329.5,-772.5 46.5,-772.5"/>
<text text-anchor="start" x="53.5" y="-783.9" font-family="Arial" font-size="14.00" fill="#000000">ipv4_address </text>
<text text-anchor="start" x="140.636" y="-783.9" font-family="Arial" font-size="14.00" fill="#666666">[varchar]</text>
<polygon fill="none" stroke="#000000" points="46.5,-742.5 46.5,-772.5 329.5,-772.5 329.5,-742.5 46.5,-742.5"/>
<text text-anchor="start" x="53.5" y="-753.9" font-family="Arial" font-size="14.00" fill="#000000">ipv6_address </text>
<text text-anchor="start" x="140.636" y="-753.9" font-family="Arial" font-size="14.00" fill="#666666">[varchar]</text>
<polygon fill="none" stroke="#000000" points="46.5,-712.5 46.5,-742.5 329.5,-742.5 329.5,-712.5 46.5,-712.5"/>
<text text-anchor="start" x="53.5" y="-723.9" font-family="Arial" font-size="14.00" fill="#000000">event_type </text>
<text text-anchor="start" x="125.8674" y="-723.9" font-family="Arial" font-size="14.00" fill="#666666">[auth.audit_event_types]</text>
<polygon fill="none" stroke="#000000" points="46.5,-682.5 46.5,-712.5 329.5,-712.5 329.5,-682.5 46.5,-682.5"/>
<text text-anchor="start" x="53.5" y="-693.9" font-family="Arial" font-size="14.00" fill="#000000">details </text>
<text text-anchor="start" x="97.8422" y="-693.9" font-family="Arial" font-size="14.00" fill="#666666">[jsonb]</text>
<polygon fill="none" stroke="#000000" stroke-width="3" points="44.5,-681.5 44.5,-1019.5 330.5,-1019.5 330.5,-681.5 44.5,-681.5"/>
</g>
<!-- auth.users -->
<g id="node2" class="node">
<title>auth.users</title>
<polygon fill="#efefef" stroke="transparent" points="45.5,-522.5 45.5,-557.5 331.5,-557.5 331.5,-522.5 45.5,-522.5"/>
<polygon fill="none" stroke="#000000" points="45.5,-522.5 45.5,-557.5 331.5,-557.5 331.5,-522.5 45.5,-522.5"/>
<text text-anchor="start" x="82.7022" y="-535.3" font-family="Arial Bold" font-size="18.00" fill="#000000">auth.users</text>
<text text-anchor="start" x="166.7298" y="-535.3" font-family="Arial" font-size="14.00" fill="#000000">    </text>
<text text-anchor="start" x="200.9346" y="-535.3" font-family="Arial" font-size="14.00" fill="#666666">[BASE TABLE]</text>
<polygon fill="none" stroke="#000000" points="45.5,-492.5 45.5,-522.5 331.5,-522.5 331.5,-492.5 45.5,-492.5"/>
<text text-anchor="start" x="52.5" y="-503.9" font-family="Arial" font-size="14.00" fill="#000000">id    </text>
<text text-anchor="start" x="97.594" y="-503.9" font-family="Arial" font-size="14.00" fill="#666666">[integer]</text>
<polygon fill="none" stroke="#000000" points="45.5,-462.5 45.5,-492.5 331.5,-492.5 331.5,-462.5 45.5,-462.5"/>
<text text-anchor="start" x="52.5" y="-473.9" font-family="Arial" font-size="14.00" fill="#000000">username    </text>
<text text-anchor="start" x="148.939" y="-473.9" font-family="Arial" font-size="14.00" fill="#666666">[varchar(100)]</text>
<polygon fill="none" stroke="#000000" points="45.5,-432.5 45.5,-462.5 331.5,-462.5 331.5,-432.5 45.5,-432.5"/>
<text text-anchor="start" x="52.5" y="-443.9" font-family="Arial" font-size="14.00" fill="#000000">first_name    </text>
<text text-anchor="start" x="152.0442" y="-443.9" font-family="Arial" font-size="14.00" fill="#666666">[varchar(150)]</text>
<polygon fill="none" stroke="#000000" points="45.5,-402.5 45.5,-432.5 331.5,-432.5 331.5,-402.5 45.5,-402.5"/>
<text text-anchor="start" x="52.5" y="-413.9" font-family="Arial" font-size="14.00" fill="#000000">last_name    </text>
<text text-anchor="start" x="151.2756" y="-413.9" font-family="Arial" font-size="14.00" fill="#666666">[varchar(150)]</text>
<polygon fill="none" stroke="#000000" points="45.5,-372.5 45.5,-402.5 331.5,-402.5 331.5,-372.5 45.5,-372.5"/>
<text text-anchor="start" x="52.5" y="-383.9" font-family="Arial" font-size="14.00" fill="#000000">email    </text>
<text text-anchor="start" x="120.1438" y="-383.9" font-family="Arial" font-size="14.00" fill="#666666">[varchar(360)]</text>
<polygon fill="none" stroke="#000000" points="45.5,-342.5 45.5,-372.5 331.5,-372.5 331.5,-342.5 45.5,-342.5"/>
<text text-anchor="start" x="52.5" y="-353.9" font-family="Arial" font-size="14.00" fill="#000000">password    </text>
<text text-anchor="start" x="146.6024" y="-353.9" font-family="Arial" font-size="14.00" fill="#666666">[varchar(255)]</text>
<polygon fill="none" stroke="#000000" points="45.5,-312.5 45.5,-342.5 331.5,-342.5 331.5,-312.5 45.5,-312.5"/>
<text text-anchor="start" x="52.5" y="-323.9" font-family="Arial" font-size="14.00" fill="#000000">lang    </text>
<text text-anchor="start" x="113.1592" y="-323.9" font-family="Arial" font-size="14.00" fill="#666666">[auth.langs]</text>
<polygon fill="none" stroke="#000000" points="45.5,-282.5 45.5,-312.5 331.5,-312.5 331.5,-282.5 45.5,-282.5"/>
<text text-anchor="start" x="52.5" y="-293.9" font-family="Arial" font-size="14.00" fill="#000000">is_active    </text>
<text text-anchor="start" x="141.1564" y="-293.9" font-family="Arial" font-size="14.00" fill="#666666">[boolean]</text>
<polygon fill="none" stroke="#000000" points="45.5,-252.5 45.5,-282.5 331.5,-282.5 331.5,-252.5 45.5,-252.5"/>
<text text-anchor="start" x="52.5" y="-263.9" font-family="Arial" font-size="14.00" fill="#000000">is_superuser    </text>
<text text-anchor="start" x="166.8282" y="-263.9" font-family="Arial" font-size="14.00" fill="#666666">[boolean]</text>
<polygon fill="none" stroke="#000000" points="45.5,-222.5 45.5,-252.5 331.5,-252.5 331.5,-222.5 45.5,-222.5"/>
<text text-anchor="start" x="52.5" y="-233.9" font-family="Arial" font-size="14.00" fill="#000000">is_serviceuser    </text>
<text text-anchor="start" x="176.1522" y="-233.9" font-family="Arial" font-size="14.00" fill="#666666">[boolean]</text>
<polygon fill="none" stroke="#000000" points="45.5,-192.5 45.5,-222.5 331.5,-222.5 331.5,-192.5 45.5,-192.5"/>
<text text-anchor="start" x="52.5" y="-203.9" font-family="Arial" font-size="14.00" fill="#000000">last_login    </text>
<text text-anchor="start" x="145.8282" y="-203.9" font-family="Arial" font-size="14.00" fill="#666666">[timestamp with time zone]</text>
<polygon fill="none" stroke="#000000" points="45.5,-162.5 45.5,-192.5 331.5,-192.5 331.5,-162.5 45.5,-162.5"/>
<text text-anchor="start" x="52.5" y="-173.9" font-family="Arial" font-size="14.00" fill="#000000">last_seen    </text>
<text text-anchor="start" x="146.615" y="-173.9" font-family="Arial" font-size="14.00" fill="#666666">[timestamp with time zone]</text>
<polygon fill="none" stroke="#000000" points="45.5,-132.5 45.5,-162.5 331.5,-162.5 331.5,-132.5 45.5,-132.5"/>
<text text-anchor="start" x="52.3731" y="-143.9" font-family="Arial" font-size="14.00" fill="#000000">date_joined    </text>
<text text-anchor="start" x="158.9425" y="-143.9" font-family="Arial" font-size="14.00" fill="#666666">[timestamp with time zone]</text>
<polygon fill="none" stroke="#000000" points="45.5,-102.5 45.5,-132.5 331.5,-132.5 331.5,-102.5 45.5,-102.5"/>
<text text-anchor="start" x="52.5" y="-113.9" font-family="Arial" font-size="14.00" fill="#000000">created_at    </text>
<text text-anchor="start" x="152.8422" y="-113.9" font-family="Arial" font-size="14.00" fill="#666666">[timestamp with time zone]</text>
<polygon fill="none" stroke="#000000" points="45.5,-72.5 45.5,-102.5 331.5,-102.5 331.5,-72.5 45.5,-72.5"/>
<text text-anchor="start" x="52.5" y="-83.9" font-family="Arial" font-size="14.00" fill="#000000">created_by    </text>
<text text-anchor="start" x="155.9516" y="-83.9" font-family="Arial" font-size="14.00" fill="#666666">[integer]</text>
<polygon fill="none" stroke="#000000" points="45.5,-42.5 45.5,-72.5 331.5,-72.5 331.5,-42.5 45.5,-42.5"/>
<text text-anchor="start" x="52.5" y="-53.9" font-family="Arial" font-size="14.00" fill="#000000">updated_at    </text>
<text text-anchor="start" x="156.7468" y="-53.9" font-family="Arial" font-size="14.00" fill="#666666">[timestamp with time zone]</text>
</g>
<!-- auth.audit_events&#45;&gt;auth.users -->
<g id="edge1" class="edge">
<title>auth.audit_events:author_id&#45;&gt;auth.users:id</title>
<path fill="none" stroke="#000000" d="M339.3285,-935.4771C393.8314,-911.6477 371.3221,-684.4581 329.5,-637 245.38,-541.5438 129.62,-696.4562 45.5,-601 18.0254,-569.8229 3.9444,-507.5 45.5,-507.5"/>
<polygon fill="#000000" stroke="#000000" points="339.2947,-935.484 328.5928,-933.0924 334.3973,-936.492 329.5,-937.5 329.5,-937.5 329.5,-937.5 334.3973,-936.492 330.4072,-941.9076 339.2947,-935.484 339.2947,-935.484"/>
<text text-anchor="start" x="336.263" y="-947.5" font-family="Arial" font-size="10.00" fill="#000000">FOREIGN KEY (author_id) REFERENCES auth.users(id) ON DELETE SET NULL</text>
</g>
</g>
</svg>
