<?xml version="1.0" encoding="UTF-8" standalone="no"?>
<!DOCTYPE svg PUBLIC "-//W3C//DTD SVG 1.1//EN"
 "http://www.w3.org/Graphics/SVG/1.1/DTD/svg11.dtd">
<!-- Generated by graphviz version 2.40.1 (20161225.0304)
 -->
<!-- Title: auth.invitations Pages: 1 -->
<svg width="979pt" height="1229pt"
 viewBox="0.00 0.00 979.00 1229.00" xmlns="http://www.w3.org/2000/svg" xmlns:xlink="http://www.w3.org/1999/xlink">
<g id="graph0" class="graph" transform="scale(1 1) rotate(0) translate(4 1225)">
<title>auth.invitations</title>
<polygon fill="#ffffff" stroke="transparent" points="-4,4 -4,-1225 975,-1225 975,4 -4,4"/>
<!-- auth.invitations -->
<g id="node1" class="node">
<title>auth.invitations</title>
<polygon fill="#efefef" stroke="transparent" points="328,-892.5 328,-927.5 589,-927.5 589,-892.5 328,-892.5"/>
<polygon fill="none" stroke="#000000" points="328,-892.5 328,-927.5 589,-927.5 589,-892.5 328,-892.5"/>
<text text-anchor="start" x="334.6986" y="-905.3" font-family="Arial Bold" font-size="18.00" fill="#000000">auth.invitations</text>
<text text-anchor="start" x="454.7334" y="-905.3" font-family="Arial" font-size="14.00" fill="#000000">    </text>
<text text-anchor="start" x="488.9382" y="-905.3" font-family="Arial" font-size="14.00" fill="#666666">[BASE TABLE]</text>
<polygon fill="none" stroke="#000000" points="328,-862.5 328,-892.5 589,-892.5 589,-862.5 328,-862.5"/>
<text text-anchor="start" x="335" y="-873.9" font-family="Arial" font-size="14.00" fill="#000000">id </text>
<text text-anchor="start" x="349.7798" y="-873.9" font-family="Arial" font-size="14.00" fill="#666666">[integer]</text>
<polygon fill="none" stroke="#000000" points="328,-832.5 328,-862.5 589,-862.5 589,-832.5 328,-832.5"/>
<text text-anchor="start" x="335" y="-843.9" font-family="Arial" font-size="14.00" fill="#000000">invited_by </text>
<text text-anchor="start" x="401.9074" y="-843.9" font-family="Arial" font-size="14.00" fill="#666666">[integer]</text>
<polygon fill="none" stroke="#000000" points="328,-802.5 328,-832.5 589,-832.5 589,-802.5 328,-802.5"/>
<text text-anchor="start" x="335" y="-813.9" font-family="Arial" font-size="14.00" fill="#000000">invited_at </text>
<text text-anchor="start" x="398.798" y="-813.9" font-family="Arial" font-size="14.00" fill="#666666">[timestamp with time zone]</text>
<polygon fill="none" stroke="#000000" points="328,-772.5 328,-802.5 589,-802.5 589,-772.5 328,-772.5"/>
<text text-anchor="start" x="335" y="-783.9" font-family="Arial" font-size="14.00" fill="#000000">email </text>
<text text-anchor="start" x="372.3296" y="-783.9" font-family="Arial" font-size="14.00" fill="#666666">[varchar(360)]</text>
<polygon fill="none" stroke="#000000" points="328,-742.5 328,-772.5 589,-772.5 589,-742.5 328,-742.5"/>
<text text-anchor="start" x="335" y="-753.9" font-family="Arial" font-size="14.00" fill="#000000">token </text>
<text text-anchor="start" x="373.129" y="-753.9" font-family="Arial" font-size="14.00" fill="#666666">[text]</text>
<polygon fill="none" stroke="#000000" points="328,-712.5 328,-742.5 589,-742.5 589,-712.5 328,-712.5"/>
<text text-anchor="start" x="335" y="-723.9" font-family="Arial" font-size="14.00" fill="#000000">expires </text>
<text text-anchor="start" x="384.0056" y="-723.9" font-family="Arial" font-size="14.00" fill="#666666">[timestamp with time zone]</text>
<polygon fill="none" stroke="#000000" points="328,-682.5 328,-712.5 589,-712.5 589,-682.5 328,-682.5"/>
<text text-anchor="start" x="335" y="-693.9" font-family="Arial" font-size="14.00" fill="#000000">user_id </text>
<text text-anchor="start" x="384.7882" y="-693.9" font-family="Arial" font-size="14.00" fill="#666666">[integer]</text>
<polygon fill="none" stroke="#000000" stroke-width="3" points="326,-681.5 326,-929.5 590,-929.5 590,-681.5 326,-681.5"/>
</g>
<!-- auth.users -->
<g id="node3" class="node">
<title>auth.users</title>
<polygon fill="#efefef" stroke="transparent" points="316,-522.5 316,-557.5 602,-557.5 602,-522.5 316,-522.5"/>
<polygon fill="none" stroke="#000000" points="316,-522.5 316,-557.5 602,-557.5 602,-522.5 316,-522.5"/>
<text text-anchor="start" x="353.2022" y="-535.3" font-family="Arial Bold" font-size="18.00" fill="#000000">auth.users</text>
<text text-anchor="start" x="437.2298" y="-535.3" font-family="Arial" font-size="14.00" fill="#000000">    </text>
<text text-anchor="start" x="471.4346" y="-535.3" font-family="Arial" font-size="14.00" fill="#666666">[BASE TABLE]</text>
<polygon fill="none" stroke="#000000" points="316,-492.5 316,-522.5 602,-522.5 602,-492.5 316,-492.5"/>
<text text-anchor="start" x="323" y="-503.9" font-family="Arial" font-size="14.00" fill="#000000">id    </text>
<text text-anchor="start" x="368.094" y="-503.9" font-family="Arial" font-size="14.00" fill="#666666">[integer]</text>
<polygon fill="none" stroke="#000000" points="316,-462.5 316,-492.5 602,-492.5 602,-462.5 316,-462.5"/>
<text text-anchor="start" x="323" y="-473.9" font-family="Arial" font-size="14.00" fill="#000000">username    </text>
<text text-anchor="start" x="419.439" y="-473.9" font-family="Arial" font-size="14.00" fill="#666666">[varchar(100)]</text>
<polygon fill="none" stroke="#000000" points="316,-432.5 316,-462.5 602,-462.5 602,-432.5 316,-432.5"/>
<text text-anchor="start" x="323" y="-443.9" font-family="Arial" font-size="14.00" fill="#000000">first_name    </text>
<text text-anchor="start" x="422.5442" y="-443.9" font-family="Arial" font-size="14.00" fill="#666666">[varchar(150)]</text>
<polygon fill="none" stroke="#000000" points="316,-402.5 316,-432.5 602,-432.5 602,-402.5 316,-402.5"/>
<text text-anchor="start" x="323" y="-413.9" font-family="Arial" font-size="14.00" fill="#000000">last_name    </text>
<text text-anchor="start" x="421.7756" y="-413.9" font-family="Arial" font-size="14.00" fill="#666666">[varchar(150)]</text>
<polygon fill="none" stroke="#000000" points="316,-372.5 316,-402.5 602,-402.5 602,-372.5 316,-372.5"/>
<text text-anchor="start" x="323" y="-383.9" font-family="Arial" font-size="14.00" fill="#000000">email    </text>
<text text-anchor="start" x="390.6438" y="-383.9" font-family="Arial" font-size="14.00" fill="#666666">[varchar(360)]</text>
<polygon fill="none" stroke="#000000" points="316,-342.5 316,-372.5 602,-372.5 602,-342.5 316,-342.5"/>
<text text-anchor="start" x="323" y="-353.9" font-family="Arial" font-size="14.00" fill="#000000">password    </text>
<text text-anchor="start" x="417.1024" y="-353.9" font-family="Arial" font-size="14.00" fill="#666666">[varchar(255)]</text>
<polygon fill="none" stroke="#000000" points="316,-312.5 316,-342.5 602,-342.5 602,-312.5 316,-312.5"/>
<text text-anchor="start" x="323" y="-323.9" font-family="Arial" font-size="14.00" fill="#000000">lang    </text>
<text text-anchor="start" x="383.6592" y="-323.9" font-family="Arial" font-size="14.00" fill="#666666">[auth.langs]</text>
<polygon fill="none" stroke="#000000" points="316,-282.5 316,-312.5 602,-312.5 602,-282.5 316,-282.5"/>
<text text-anchor="start" x="323" y="-293.9" font-family="Arial" font-size="14.00" fill="#000000">is_active    </text>
<text text-anchor="start" x="411.6564" y="-293.9" font-family="Arial" font-size="14.00" fill="#666666">[boolean]</text>
<polygon fill="none" stroke="#000000" points="316,-252.5 316,-282.5 602,-282.5 602,-252.5 316,-252.5"/>
<text text-anchor="start" x="323" y="-263.9" font-family="Arial" font-size="14.00" fill="#000000">is_superuser    </text>
<text text-anchor="start" x="437.3282" y="-263.9" font-family="Arial" font-size="14.00" fill="#666666">[boolean]</text>
<polygon fill="none" stroke="#000000" points="316,-222.5 316,-252.5 602,-252.5 602,-222.5 316,-222.5"/>
<text text-anchor="start" x="323" y="-233.9" font-family="Arial" font-size="14.00" fill="#000000">is_serviceuser    </text>
<text text-anchor="start" x="446.6522" y="-233.9" font-family="Arial" font-size="14.00" fill="#666666">[boolean]</text>
<polygon fill="none" stroke="#000000" points="316,-192.5 316,-222.5 602,-222.5 602,-192.5 316,-192.5"/>
<text text-anchor="start" x="323" y="-203.9" font-family="Arial" font-size="14.00" fill="#000000">last_login    </text>
<text text-anchor="start" x="416.3282" y="-203.9" font-family="Arial" font-size="14.00" fill="#666666">[timestamp with time zone]</text>
<polygon fill="none" stroke="#000000" points="316,-162.5 316,-192.5 602,-192.5 602,-162.5 316,-162.5"/>
<text text-anchor="start" x="323" y="-173.9" font-family="Arial" font-size="14.00" fill="#000000">last_seen    </text>
<text text-anchor="start" x="417.115" y="-173.9" font-family="Arial" font-size="14.00" fill="#666666">[timestamp with time zone]</text>
<polygon fill="none" stroke="#000000" points="316,-132.5 316,-162.5 602,-162.5 602,-132.5 316,-132.5"/>
<text text-anchor="start" x="322.8731" y="-143.9" font-family="Arial" font-size="14.00" fill="#000000">date_joined    </text>
<text text-anchor="start" x="429.4425" y="-143.9" font-family="Arial" font-size="14.00" fill="#666666">[timestamp with time zone]</text>
<polygon fill="none" stroke="#000000" points="316,-102.5 316,-132.5 602,-132.5 602,-102.5 316,-102.5"/>
<text text-anchor="start" x="323" y="-113.9" font-family="Arial" font-size="14.00" fill="#000000">created_at    </text>
<text text-anchor="start" x="423.3422" y="-113.9" font-family="Arial" font-size="14.00" fill="#666666">[timestamp with time zone]</text>
<polygon fill="none" stroke="#000000" points="316,-72.5 316,-102.5 602,-102.5 602,-72.5 316,-72.5"/>
<text text-anchor="start" x="323" y="-83.9" font-family="Arial" font-size="14.00" fill="#000000">created_by    </text>
<text text-anchor="start" x="426.4516" y="-83.9" font-family="Arial" font-size="14.00" fill="#666666">[integer]</text>
<polygon fill="none" stroke="#000000" points="316,-42.5 316,-72.5 602,-72.5 602,-42.5 316,-42.5"/>
<text text-anchor="start" x="323" y="-53.9" font-family="Arial" font-size="14.00" fill="#000000">updated_at    </text>
<text text-anchor="start" x="427.2468" y="-53.9" font-family="Arial" font-size="14.00" fill="#666666">[timestamp with time zone]</text>
</g>
<!-- auth.invitations&#45;&gt;auth.users -->
<g id="edge2" class="edge">
<title>auth.invitations:invited_by&#45;&gt;auth.users:id</title>
<path fill="none" stroke="#000000" d="M599.3951,-846.8709C680.0197,-836.6569 648.2687,-704.5975 589,-637 508.3166,-544.9785 396.6834,-693.0215 316,-601 288.6038,-569.754 274.4444,-507.5 316,-507.5"/>
<polygon fill="#000000" stroke="#000000" points="598.9817,-846.8959 588.7281,-843.0082 593.9909,-847.1979 589,-847.5 589,-847.5 589,-847.5 593.9909,-847.1979 589.2719,-851.9918 598.9817,-846.8959 598.9817,-846.8959"/>
<text text-anchor="start" x="595.822" y="-857.5" font-family="Arial" font-size="10.00" fill="#000000">FOREIGN KEY (invited_by) REFERENCES auth.users(id) ON DELETE CASCADE</text>
</g>
<!-- auth.invitations&#45;&gt;auth.users -->
<g id="edge3" class="edge">
<title>auth.invitations:user_id&#45;&gt;auth.users:id</title>
<path fill="none" stroke="#000000" d="M458.2011,-672.314C448.3885,-614.6184 350.8868,-661.0381 316,-601 295.1218,-565.07 274.4444,-507.5 316,-507.5"/>
<polygon fill="#000000" stroke="#000000" points="458.218,-672.5306 454.5138,-682.8519 458.609,-677.5153 459,-682.5 459,-682.5 459,-682.5 458.609,-677.5153 463.4862,-682.1481 458.218,-672.5306 458.218,-672.5306"/>
<text text-anchor="start" x="465.936" y="-692.5" font-family="Arial" font-size="10.00" fill="#000000">FOREIGN KEY (user_id) REFERENCES auth.users(id) ON DELETE CASCADE</text>
</g>
<!-- auth.space_invitations -->
<g id="node2" class="node">
<title>auth.space_invitations</title>
<polygon fill="#efefef" stroke="transparent" points="299,-1142.5 299,-1177.5 618,-1177.5 618,-1142.5 299,-1142.5"/>
<polygon fill="none" stroke="#000000" points="299,-1142.5 299,-1177.5 618,-1177.5 618,-1142.5 299,-1142.5"/>
<text text-anchor="start" x="305.6862" y="-1155.3" font-family="Arial Bold" font-size="18.00" fill="#000000">auth.space_invitations</text>
<text text-anchor="start" x="483.7458" y="-1155.3" font-family="Arial" font-size="14.00" fill="#000000">    </text>
<text text-anchor="start" x="517.9506" y="-1155.3" font-family="Arial" font-size="14.00" fill="#666666">[BASE TABLE]</text>
<polygon fill="none" stroke="#000000" points="299,-1112.5 299,-1142.5 618,-1142.5 618,-1112.5 299,-1112.5"/>
<text text-anchor="start" x="306" y="-1123.9" font-family="Arial" font-size="14.00" fill="#000000">invitation_id    </text>
<text text-anchor="start" x="414.108" y="-1123.9" font-family="Arial" font-size="14.00" fill="#666666">[integer]</text>
<polygon fill="none" stroke="#000000" points="299,-1082.5 299,-1112.5 618,-1112.5 618,-1082.5 299,-1082.5"/>
<text text-anchor="start" x="306" y="-1093.9" font-family="Arial" font-size="14.00" fill="#000000">space_id    </text>
<text text-anchor="start" x="396.2244" y="-1093.9" font-family="Arial" font-size="14.00" fill="#666666">[integer]</text>
<polygon fill="none" stroke="#000000" points="299,-1052.5 299,-1082.5 618,-1082.5 618,-1052.5 299,-1052.5"/>
<text text-anchor="start" x="306" y="-1063.9" font-family="Arial" font-size="14.00" fill="#000000">role    </text>
<text text-anchor="start" x="363.5372" y="-1063.9" font-family="Arial" font-size="14.00" fill="#666666">[auth.roles]</text>
</g>
<!-- auth.space_invitations&#45;&gt;auth.invitations -->
<g id="edge1" class="edge">
<title>auth.space_invitations:invitation_id&#45;&gt;auth.invitations:id</title>
<path fill="none" stroke="#000000" d="M288.9244,-1126.7828C189.0372,-1112.1191 219.6393,-877.5 328,-877.5"/>
<polygon fill="#000000" stroke="#000000" points="289.0252,-1126.7899 298.6805,-1131.9886 294.0126,-1127.145 299,-1127.5 299,-1127.5 299,-1127.5 294.0126,-1127.145 299.3195,-1123.0114 289.0252,-1126.7899 289.0252,-1126.7899"/>
<text text-anchor="start" x="7.213" y="-1137.5" font-family="Arial" font-size="10.00" fill="#000000">FOREIGN KEY (invitation_id) REFERENCES auth.invitations(id)</text>
</g>
</g>
</svg>
